<mxfile host="65bd71144e">
    <diagram id="JUZrknxZkFB0vXLWdVkZ" name="Page-1">
        <mxGraphModel dx="639" dy="390" grid="1" gridSize="10" guides="1" tooltips="1" connect="1" arrows="1" fold="1" page="1" pageScale="1" pageWidth="827" pageHeight="1169" math="0" shadow="0">
            <root>
                <mxCell id="0"/>
                <mxCell id="1" parent="0"/>
                <mxCell id="2" value="" style="shape=image;verticalLabelPosition=bottom;labelBackgroundColor=default;verticalAlign=top;aspect=fixed;imageAspect=0;image=data:image/png,iVBORw0KGgoAAAANSUhEUgAAAggAAADCCAYAAAAsEDqYAAAAAXNSR0IArs4c6QAAIABJREFUeF7svQd4HNd57/2fthWLRS8kSAJsErtEiaqkerFsybIl27Lc7Uh2fH1d5Jv7fXFT4v7ZvklsJ47sxFas2LpWcaRIVu+9UxQ7xQ4SJED07WVmZ77nPYsFFsCWmdnZxQKcowcPKWLmzJn3nJnzm7dy13zhNxrGGs+p8Aoh1IjhzD9Z8meN1wuItTg2yiOasKRLXZ3QjY3fnI4zeKjs3n1iSMfRc+8QDRwCSh0iisfwzQ317cVrD/wDOI4zfK51J3BonL8cK9dfjNDxd6DKUeu6tnuyJWBLwJbASSIBh7cZDUsvBveBL/5aUzUOmgZwDBAi8IlBS8Xg8XggOGpxbERApIKAkLkJvaBAgERwUCNYC0iWCrOMnakajwG5CYoqGb4KAcKbD/0cy5YtM3yuVSfs27cPdc0LsaCtDpqmWtWt3c8cl0AqlYJGL0ALmyiKFvZmd2VLoPISIEjgvvbtf9YCcR7RpABZASQuBr84Yulo3G43RCcBgjgjgEA3owcSCBD8UgAe/uT88lRUB04km03NPQHC24/+My655BKoqgpZlk31Y+Yk0lo4nU48+eST8DctQEdrrZlu7HNOQgnQWj169CgaGxshScbBeKrIRkZGEAgEsGTJkqqTJs/zoB+72RLQKwHuG9/7BUNnVQMiCR4JWYEjFUBK1aBaRNVulwtOdy16RiSE4nqHVp7jCoGCwKXQII3Awc+AmqM8t2uo10TKhUG50dA5mYMzgHDRRRdheHgYx44dYy/dcjX64lNkBSOjIwwOVq1ahaeeegq+hnlY2F5frsva/c4xCRAg9Pf348UXX8S8efNK0iSQJuJX//IrfPs730Z7e3vJkqLNnMZnBbjQ2Ki/+nr72Sh5Yk6iDri//e7PtWy7MdnhkYojHE0ilkxZIgqXwwG314+eUQeCMUu6LKmTjDJxqlLxZAcE8j8IK15Tsp0KCPRS+8pXvsL6opec1S2ZTKKvrw+//4/fIxaPYeXKlUyD4HTXYNmSTqsvZ/c3RyWQAYTnnnsO4XC4JM2Xoii47Ve34e5778Ypp5xSssQEQUAoFML8+fNL6otgOhgMYmhoCK2trSX1ZZ98ckmAu+WbP9HIXpZRPxEgaEoCwUgcScWaF7tDkuDz1eHoqAOBKtLeT9UmECA0SsOQ+OTJtQqYCYbDiUQLUpo52+lUQKCX2l133YVEIoFo1PpJj0Qi2PrOVvz9d/+evfwygEDrmP5uN1sCeiRQDkC497/uxcaNG/VcvuAxtMaPHDmCFStWlNwXmT16e3ttQChZkidXB9znv3orAwRRFCCKEkSBg6rICEfjzOxgRXOIImr9dTg64sSo9XtFSUPM1iaInIJmaRA8b43mpKSBVfjklCagL9Fm+qpTAYFUrH/4wx/YV8uJEydM95vvxMBoAE8//TTuu/8+9tVHJgbSINiAYLmo53SHNiDM6em1b65ECTBAyPRBpgZREKBBg6JYt0lSn3V1dTgWcGEkAhYxUW2NhiRwClocAyya42Rr8ZQbQ3KD6dueDYAgckC7qKFWmLjNlAYcd3EQ/FlzrgHJKIfI0EyGbJqeCvtEAxKwAcGAsOxDKyYBMi+RbxVpX+mjx+/3sw8hMoOZbTU1NVi9ejWob/IRO3z4cNGuJgFC0aNNHiDwPAOEE2EPhkLk/GiyozKfxgDBaf3XbpmHbUn3I3I9oinj+Q8yF58NgOAXgOtrZZzmSiGz9Uc0Hn9aIKDm9H5wfHphqikeQwf8ePcZtyWytTupXgnYgFC9c3Oyjoz2ygsuuADNzc1444030N3djRtuuAHHjx/Hww8/bFgsGR/DpUuX4stf/jIDhOeffx5//vOfi/qHVQQQeI5DXX09BqJuDAbJac3wPVbkBImX0eTor8i1quki5H9A5gXKg2C2zQZAaBSBrzXGcZFnIgQzqAr46akO1F2yZwIQFBHHt7XjrT/VmRWHfd4skUClAMHn8+W1/5MTIYVakuNtdrN9EGbJIrJwmB0dHXjPe96DdevWgeafHF83b96Ma6+9Frt27cJPf/pTQ1draGjAZZddxsy8p512Gs477zx2PmkPXnjhBRa1Q34u7777bk4H3YoAAn2tESCMxD3oDwCpKgUEB59Eo2PA0ATMhYNL9T8gGegFBFKRbX5rMwYHB5nabOOmjXC5XNPESA/GwYMHsX3bdixespg9MNkx3GZ8EGxAmAur1dp7MAII9DItlCk0E8Uw1UmRzqG8CJQjJFejMdx3330sPNgGBGvndzb1Rn5UV111FQPJV199lW3eBAzkdF1bW4utW7caBoRPfOITuPzyy5kjN8FCJoEXhb1mzBV79+7F3XffzSB1aqsIINBF6+vSIXS9I4BsnXuDpfNPgFAvDYPnqnSAlt7tRGexlAfDcmnx0XoBgV6CD/z3A0xtRg/CJz75CdDX1dRG0Q8EEk888QQ2bNiA91z1HqYayzQbEMq0GE6ybvUAAr2o6Yvr7bffxtq1a/NmCy0ECPTy/8AHPpBTuvSy/t3vfsfyMZQCCAQi+TJC2lEM1buwadM+++yzceWVVzKNAYEARa7Qhr59+3Y2cNIC0Dvzl7/8Jfu40tPog+rHP/4xOjvTYd+0Bl5++WUGBuvXrweZHKjRuvv3f/93bNu2beYAoc7vRyzlxfFRDklFz+1V/hgOGgtxdAoJuLg4RL5y2QArf7cTVxySGxFPTf+KNzImvYBAarMtW7ZgeGiYJYBpbmlmmgFSf9ELjhYxaQ7oRUcLmUCgs6sTa9asmfT1ZgYQ6gTg43UKzvRMAGBE5XFHJw/fhhFwXMYHgUP/Pi92Pmr7IBhZA7Px2GKAQI5hAwMD2L17N15//XWceeaZ7OVK2q+pCYwqBQiUgIy+KskmfejQIWZHps3kwgsvZLblqZqIzOZghzlW3wqlLMOkWaIfglCaU1pftKkTONBcEiTQ3FESOno3Pvjgg2zeizV6n1I+jm9961vs0Ndeew1//OMfGYScc845+PCHP8w+zu6//3489thjOR0gK6ZB8Pt8SHI+HBvhkKjyfZdSLlM+CJFX4OJjcPJx0L/NxSYJPIJaM4aj5vIfZGSiFxBo4yftAH01UQjkXx78C/PUveXrtzBQOHDgAP77/v9mL99Vq1cxmxn93eFwTBK/GUAQnF64V18Ksf0UaGNeilwyig2h/8QlK3uRyUJLATzbDjpw97OTrzkX5/9kv6digEDJuChclyAhHo8zcxh93V1xxRXTEhjpBQTyIKdj6eU/OjrK4JdMDHo1CPQs0At+0aJF7IuQ1Mf0hUnPFb3oY7Hp2ehsDUJ1rnTK3kkOiPQupLVIAEqa1WxzKr0fCVB37tzJTK3kk/D444/ruiGqg3TbbbexY5955hnccccd7O+klf3Upz7FMmuS9ooSheXSPlUMEGpqvFCFWhwb5hGvckCYkDy572kQ+BRcfBwuPgGRT7J/myvN45LgcNdCTvGIJDkMRgQkZOPOinoBIVtu5Djzxz/8kWWLo/S09FCQs8zdd93NQnzOOPMM9iLO1cwAAlfTgL6Lv4TRZZuAsTgGXyyIbx77Aj5/1ksQ+DQEyoqIZ3a049Z7pps+5sq82/eRlkAxQOjp6WEvWNrM6Yts4cKF7CVOL2ryMs9uegGBbL60mdP6J491Ao4777xTNyDQNQlUNm3axGzU9Hfq69lnn2XAketFbwNCda54Mptmwg+vu+46Bp25/Fxovbz55ptsg6ePK9LEFmvU93e+8x2ceuqp7FDSQlDkAq2FSy+9lEEmXYu0FgQJ5AQ5de1UDBCIZHiJ6jEIiM3SRIUZEwSBgluIzAmtQm2NG5IzHd5I2KOqHEIJHqNRHsF4VsKAIqvRDCCQCeGdd95hL8uMhoBe2PSiJfXa/HnzsXRZ2k42tZkFhOOXfgUjyy8a7642FsStxz6H/3H28+OAkFREPLV9Pr71J7voU7GX0Gz/vRFAoDVKwEo/9PKdWvhIDyDQy33Pnj0MTAgwyK+BKqBSHRH6isxuxaIYaDwXX3wxSE1NHulUKMr2QZidK/L888/HjTfeOA6dP/jBD1iugi996UssdwGtFzLNGo1iuPXWW1kSOfZ+1zQGF/Rn9vqlKIbbb7+daSmmtsoBgtsN3kGAIM5aQMgWHpkcyF/BJ4THUjPPTq2C0+mAy+Ue927N3CMls0qmOIzGeIxERchKYb2JGUDIlucPvv8D9hCQzeyGj95Q9Cm3AaGoiOwDdEjACCBQd7QZ0xc/OZSRNiG7FQIE8hmgUDWyIZMT2uLFi5nNl0wY5KD26KOPMjOGEUCgYzNfm8XKVdsaBB2LYQYPmQoIX//61xkg/M3f/A0zB5gFBFqjt9xyC9PMnnHGGSwaghqZy0iTReuHTBakfaJ/mzFAcDudcHr86B6WEJ1jxRIp8yKBgpNPQBhzbJxtZgj6GiG1Ptn7mXmem8giKKfSWoWRqIC4zEHVyFt68lIyAwi06GlR0svtN7/+DXsIyCGRQn1YVk9RnOZ7kLmqKUDwkonhixhdSiaGdCMTw98e/yI+f9bLEMb8TJIpEc/uaMff32ubGGbwnVmRSxcDBFLL/sd//Af7Os80glhao1OLKBUCBHIsJE1BrkbrnzzIp9YsKaZBMCIgGxCMSKvyx9LmTb4IpFWi9fDtb3+bqf4psRE5LdKXP2kQfvWrXxkeXAYiSZPwjW98g52f8UfIaBTydVoxDYLT4YCnpg7dQxIicwwQSLhkvSYocI1FQDiFOPt/nnnGzx7tAqlN3S4nBFaXQwCXVT+eoCCucAwUQnEBVMsrpaZBwgwgVNoHAZILasdp0OqzquMpCayNPI01baFxJqI8HUcHeby617gvhuGn1z5hRiVQDBDYs62qkzLO0Qs3O+Q2cwP5AMHsDdqAYFZys+88+jBra2tjH2kECBTSSOuppaWFffXTRk7+JdmgavQuyfmRQm3pWmTaeuWVV4p2UTlAkCTU+OpweNiB8HRNRtGBzpYD0qBAdR1SLPrBLcRZjQf6OuUYRsyORi9B0irQT8Zele08k1A4hJmvAoECh75j+/DWI//MQnHIoUtPsaaKA8LsEL09ygpKQA8g6B2ODQh6JWUfN1skUDFAYBUd6+pxaHBuAwJNfLbOgLQIDl5mURDks0DgQD+zyQTBVP2SBFGSpjlnkbmBolLe3XcIz9z/q6KAkIkrp1AsUqlS6I6clPGxj3+MOX1RNq/nn3ueXae1rZXFA1PMOaloswHFjIlhtjyU9jgrJwEbECona/tKs08CFQMEUldTzGX3sBOBKiv5XK5pm6ovELkUgwSCBSotTT+zKb8CbeAOhzRWFjztxZ0xQXQf2o8/3/mbooAwk5kUyzXPdr+zVwLlAIR7/nwPcwgrtRFMk4c5pWkutVEoMamnSc1sN1sCeiVQMUCgio71DQ04Nkoln7WqLPmsV2hGjstlVCDtAUvCxFFeBZlpGASkZlWZadIoCKLIHAnp5+DBQ3jgrl8XBQRyliINATl/NTQ24H3vex8oBHZqo5cjxeW+9uprLEznvPPPK7kWg5F5s489OSRAgECmLooDHxocylmwRq8kUmoKzz79LAgQKD9BKY20ZV6vl42N4uRLbWTDJqCnjIt2syWgVwLcF752a7EIGb19FTyOKjrS4jwedGEkjKot+WzJzU7ppJCbIjkxUvSDCAUOITGuWSjHOMrRJ5kCGCB09+HJ+4trEGjjp4xxFL1A/g2USSyXwxe9uClDHMWG2yaGcsyc3SdJgNYZhZOtP309+8KmjbSURv3t3rMbCxYsKKUbZk6jkErKEWJVKxQVZNU17H7mlgQYIGRuaWromtW32tjQgP4qL/ls9T2Py1ZHLIPEk9mBNApJSPQnJ88SrQKH3YdH8fqjtxXVIFglX9sHwSpJntz90NcRabWo1LJVX0q0EZPPjN1sCcx2CUwChHKDQkN9HUYTHvSNclVb8rncE6on6JH8Epi/Aieni0cx50alah0bqVz0ru4gNj9qLIqhFFnbgFCK9OxzbQnYErAlUFwCOQGhXKBAFR1ZyedRDlQQ52RteiAhIxuKeCBnRon5KiTh5BJV59gYUWpwoOcE3q4CQCB77Ve+8hXs2LHDsi/CqeuUTB6U35yy4VEe/EzLlNslVTXZtOmr1G62BMxKIJNvgUxx9PfMT67+SPuRs9hOVsIzs+PIXt+l9lHp8/NphXLVOyg0tkLyzddXvnPoOkavn29sVvWTt/9sE0PuhWfdlPpraxHXanBsmIN8EgPCOIDpMDtkjiVfBR4p5txImgU3C5ukqlczn4TpRKIVJ3oPVgUg0Ob9ox/9CE8//TR4rjyJjiiBzUdv/CjLpkdAQnZr8pegJCfkWEYZ0G6++eZpmfGse5LsnuaiBCjsl9ZR9oZMSXIo+otANFf9BzqWNiLyfcjVrNpACsFJtc6FmU09371MTZY1/l7m+Wk1OTK/o3OsApRCgGDVHOdcP8UAYXwzs2AfYi9T3oeeYR5JpVqXVeXHZSR9EiVhotTOAlQIvAKPEIMDSfb3mWhkXiBAGOzbNwkQaKP+3ne/x3LPUx5wqxslpTnRdwLPPv8s26Ap0uHJJ59kWce+973v4eWXXoYg6i82ZWR8VLf9s5/9LD74wQ+yCAy6R8qrT7Znck6jF70NCEYkah9LEqAQYIruyWwqFHVAYYmUfpcAgZwWpxaIsgEh/9qxAaH056qgicFqjQJ9XUH04ciQYANCDuEaAYXM6ZkMjVRh0klpnvnpteBLXyb5e4ioNQgka6cBAnlfX3nFlSxM63jvccuHQA8/JViizZkX+GmA8Oqrr04rQGXVIA4dOoTPfOYz42lLKRyTzAlE8lS+1+fz2YBglbBPon4oYoe0TxltAGkMKP1uU1MTi/ihdWUDgv4FYQOCflnl1VDo1SBM7cBMxIPH7QYn1eLIsGgDgs650+uvQLkVOE6DxCksbNIjRJljY7nbYLIJCdU5rRYDJXihl1o+1ZwV48qUL6Uvq6kahEoBAmkNCBAofJMAgbRkpBIupEHQBDc4TQFUMhFNb5Qr/cwzz2RVA6nKH2kkSJaDg4MF/SqoiBCFj1Ied9LgrFu3Dtu3by8pf7sV82T3oU8ChQCB1gQBwtSQ4MwmWG5VNt3BbDMz5DO7mLmXfOaCQr4hJ5WJwQptgotVdKzD4UGRpee1W3kkoI3BAkU/ECg4yuTYqGoC+pPNIDNDpljTJZdcwm6q0MNp9V3TQ0pfVk888cS4iYEAgV6q9EKlsdCf9BIl00SmkXmANlSjY83WIBgCBI5HqHUjuudfAfASuvb/Ad7R3YCWwkc+8hG85z3vYS9hGivlDKG003/84x/ZxkApp++44w5Qiupc7ZxzzmGV2n7xi1+wSm1k6qBa8AQvVOSFwu7eeustvPDCC4bv1+r5svvLLYFigEDwaYW9uVAfVn51011aFTrKsrbmcLgs5AhYbJ1ZNbZi19H7+0LzUsjHxMya0Hvvhk0MpYCCy+GAu6YeBwdsQNC7aKw4jhWOEuLwCBHm4GhVi6kejMp+qBo/CRDMLFgrxjQVEDJf8/T1TaV2CQ62bt3KNluqkrZ06VL09PSwZDS0edIXup5mFhBUqQaHu25AX+u5zLW0q/81tB66F0IyMH5Zkh1t7t///vdZaVcq8XrFFVewMd9+++3TarYTPHz6059mDpM/+MEPQGBEWfy++93vMlgaGBgA+UzQvd55550MEHI1o5CkR072McYkYANCfnnZgJDfCdXM+7aigJCZ1mJmB0rP6/PV48CghJgdAWbs7WHB0WSCoERMXtIq8HEWLllK0ahhuQHxlIv0FdM0CKVmpDNyu5mv7mxAeP311xkUXH311SyygDZ/Oo6AgF429JW+cOFCltWR8tS/9NJLLGGOnmYWEDTRjSOLrkNf2/lMZkuOPoLG40+DVyaKk5BW48Mf/jDWrFmDb33rW+xrPwMI//mf/4nTTz8d5513Hh577DGsXr0aV155JQOAlStX4pOf/OR45AT1Q2ms6f7J3LNt2zY8/PDDTEtx+eWXM5NFppEMfvrTn9qmCD2TX8ZjbECwASGfBGa1BiH7pgpBgiSKqKtrwL5+GxDK+J7R1TXBgluIwsXFWT0ICqM0Uo5a1UQMJRuhaCK73kDf3klRDKQeZ06pZWwEIWSfJw/vqT4Ir732Gvtqpg2RzAgUgkjHP/vss8wbnOz7dB49eKSGp0gLCl/U08wAgsaJkF2NiNatQLx2GfhUAq7gXriDByAlhhiokbc6jXfjxo34+c9/zsZFZhICBIIBqnx5wQUXgOCHAIHGT/dPjmw//OEPcdNNN40DApk+NmzYwADiZz/7me5703P/9jHlkYANCDYgzHlAKKRNoIJNZAvd3+9AxLoU4+V5Wk+iXimfAjk2uoQoeKi6NAukOQgqdcz/IBcg0Bf65z//efa7cqivM2GOd/7fO5mJgL6gs8Mc33jjDaaqp1oPpDGgL3JyJHz55ZeZI+GiRYvY7/v6+hjIPPDAA8xeSuGKBBN0Dv09lyrODCAkaxbhSOd16K9fCbcSRYoTkRQcaAsewKI9v0YNn2A+BCSrP/zhDzhw4ACTHW30mzZtYloF0n489dRTTBtA0JNpdB+33HILvvnNb47/O42fZELA8dvf/pb5IdituiVgA4INCCcNIOQCBQKEhsZGVvI5GD15KjpW92tpYnSkVaBsjW4+xkwR5LtAORdymSECSh1iioepynMBwvz583HXXXcxu38+x7pS5EJfztu3bcc3v/VNZhqYCghki6eNn77Kyd8gk+WQNn36OzkBEijQptve3g4CCirRSz4KBBWkgqeNOBfcmAGEmP8U9M2/HCFX86Tb9ighdL57O6TkCBtPLiihzZ5+sh0sszshiKB4eYqhzx4vmRkIyAmCCI7sVt0SKAUQzNihc0mjFCfFqWPQa+fOHkehaIx8IZ5mrkPXNJJ50sw1rJqTQh9ZhSJLCmV41PskWOKkqOdiGdMDxfQeHXEiEKUJ0nOmfcxMSIDgwCXEIXFJZoKg/yftAnuwwDPzgqxO2LGnmhho06UvYXrpUS4Eq1u+WgyZREkECLTJ06ZLanrKUEcPOW2a9OCQOYFyFmT8DjKbLx2TebDyvRTMAILGS0g5G6CJXowxFRMJp8Qhxk6wSAa7ndwSMAsI+Rz4Ckkzn1avWHrgXJuOleGPxUIT80GNVSsn370UylaZ79pG56WQ7Itlysw1L7mAyqicKgYIaWIDmqjkc8iF4TBnA4LR2ZqB49OFoxQ4+AQrHEV/T2kigrJ/3P+AhlWNgEBf1uVoZgChHOOw+5xbEqg0IOQDYKM5FYxuhGbApVIznW9TNQMIucrYF7qPQtcwOieZ0O9S5VZRQKDB1tfVYzDmxkCQQ5704aXek31+mSRAWgQyQVBYY1J1jJsXbEAwliipTNNjdzvLJWADQnn8lYwsCxsQJkur4oBQV+tHQE5XdFT1pgk0MsP2sTMiAVuDoD+T4oxMkH3RqpeADQg2IBQy/eRawPn8DGatBoESu0RVH46NcEiN5X7gbF+Eqn95FRtgIUCgOPy9e/fiWM+xYt0U/f3KVStZ9EEwEGQVG++7/z7mgJcd5kjVHOl65HtQjvbOO+/ghhtuYLUYDGVSLMdg7D7njARsQLABYSYAga5JIeDZZgwyj9BPxTUI5DQmcz4cGeahTPHLskFh9r7rCgHC/v378czTz7CsgKW2q6+5GuvXr0coGMoJCOR4SDkEKDOiFU46ucZLYZWXXXYZLrzwQhsQSp1Q+/xxCVQaEHKJvpi3frmdFItdf+qYjR5fbLkVMjEY9dkw6ptRyEmx0H3m0yLoff+RAzc5ktN7LdMomIAioyoOCJSkhnP40TMsIJYj8ooFzdkahWLruOp+X02A8H9+8iNse/FBCJKzLHKiPAkdCztx9Q03oba+yXCxprIMyu501kugGCCQ9jWfmtloSJ2ZDacSAjZzH0brMRS6hpnQwEIOhGbux4gpwYo5oXVHjtfZieJIS9vV1VV5QKDsbx6PD3EFiCY4hBIECjzkqdoEGxSsmPuK9VEIEKiE7cjICIvxL7VRXD+9KPOFOVIVw1/9049xCrcTYoLCB8tDm4KnEfMu/ir4mnZdgJASPAjUr0HE1wUtR9GZUuVin19YAryqwBfYj9rR7elKmlXYipV7Ju1ruTcPMyGLRjfoQqLX+9Wb6SPj+W9Ek2DmHguN2WiEgZmlZ1QudA29Cepo3VG69qmAQPVfKq5BoK+vGq+XecCTk2JK5ZDSuDQsJAVEEzwU2zfBzBqa0XOqyUnx3/75Z7igfje4I3+GpuaufphbWBxE32pIiy5EfOfvoGn5z+W8y+G57F+Q8nXpAoRwzVIcWXQtQv7FMzpPJ+vFOU1F0+BmLDx8P0RZX82NSsvKBgQYNgvagJB/lc5KQCDHMUpWIwiTY9TpQ0/V0o6LkaSAYJxHLMlBVjnYvgmVflUZv14hQKC6DPRDlQVLbaT2osyIhZwUGSDU7QAO3gFN1VdfgY2Ll1B3xZ8gtKxE8ImvQu57Mu9wOe8qeN/zW6Rql+oChGDtqeju+hCCtZ2liqBs57vUBE6vA9a2uyAIHOg/PS0hK+gLp7C5V0Yv3HpOqfgxrNbFwGZ0HbwbYnKk4tfXc0EbEGxAyLdOThoNAgmAVDzk/U2Z7hyiBE5I5/PPNIIFUgyrKodYksdojEcoyUNN6Xth6XkY7WOslUAxH4TnnnsOW9/ZWvJFr3rvVayiYT4nRcqkaBYQxPpz0fCxx2mBInHgYQQf+xw0baLSYvbgzQHC9QjWdpUsg3J0sEyM4RfXzcNpjhH2bPoW69d0pJJJjO7bi2jTInz17kN4dJB8P2bmWeU54MJWJ06f70Z/RMErR2M4GEmli2HZgFB06ZhRv9smhtxmTKP+B4Um56QChKmCIEhwuJyQCBZ4Pqec0rDAYTgmIBQX7CRLRR/1yh5QDBAqFcWcRQp3AAAgAElEQVRgFBDEug2QmtZBrF8KafElkNrWMcGpsSEk330I8uBeKAM7oAxvhqpMaECsAgQHx0HWNF1+ueS6UC/wSFJRqVRpvhXUV7PII5rS0CIquONj83D+8nqcePE5OHw+NJx+BlKpdPiTw1E4XDQVi6HvxefRftHFiKZ4bPrJdryT8DA50tPsF3k4eOBEMndNezrOzXM4vVHCGwNJkIcA4YXEAcms2/QJHFw8MKJoULL+3cNz6PQK2B9R8IW1fjTXiHhkVxAdfglnLvTgnu1BbBlO2ICg45VgA4IOIU05xPZBMC4zU2fQ4iRYkJwOiILIYCEXhZHfQjTJYSQmIBidrH0wdWH7pJIlUMzE0N3dbUlNhiVLlrDyxlaYGHjnQtRddx+k5lUAlxtMGSxEhxB542eIbv1ngG1fQCmAsLZBwrXLa3DGIjce3x3GH3aHIILDmc0SXh1MMjNbQtHgk3g0OjiMJmlD1ODggOtX+HA4qOD5IzEkVQ3ntThx2TIP/C4BCVnDP746go+v9WFJAz1DHLpHZTyyJ4x1rU7sD8o4GlDYeYIGfOZ0P44Oy7iok8PHN7bDJU3IQFU1jAaCGBoKoLNzHlPpEVQQNKhj9SpoE6d9mv4kiEgXxAL+/Zkj+OKTYThFARfPc+Gj6/2Iyyru3R7Cy8fiOL3FgU+t9+OxdyN49FAUS2tFXL7Yi/eu9uHJ3WG8cCiCoYSKj67x4ddvBjAoq2hy8vjEmlqsanXirq1BvNobx3Wn1uB9p9RgMJzC0hYH7t4cwJr5Lvzja8P4840d+LdXhrBnSMamLg9+8dowavttE0OxB32mAcHo9a3UXhSTTb7fz2lA+PzX/k7LVa3PrLCsOi/bDEGwwFQsHDcJGOh1tv24q1yO6lbdyknRT9U5Ker0QXB2fRS+C74HoW5hDrW4BjUeRHzX3Yi8+ROo8Z7xuTQLCPG6Lpw/z42LOt04rcOFt47EcfuWAE5rduKWixuxpzeBYyEZv94cwDWLvVjf4UYkkcIbfXG8dDiKm8+oQ4dPwv07Q3j1RJxpHySewyI3jy+f14j/96kBtLkFXLPcC6fEY+dAEo8fimCZX8Jiv4gV7U7sGZCxpSeOWy5ogCxriAWH8PVrlqDGNeEXFApH8OLLbyMYCmPVKUuwZ+9h+Hxe7D94BMd6+1Hr87JEKgQGBAWf+9QH4K9Ne9nvPh7Bab88DF4QccVCNz5/bj36ggqe2hvG00diqJE4fOnseuwbSOLePWGMJFWs9Iv467Mb8NqhCHiew+u9cXx4VS3u2BKAS+IwGEvh3A43zu9wIZhQsbM/ga46CRcvq4GsamjzS9h8OIrnD0Tw1UubcM4iDw4MJvDA1hASqoZfvT4MqfetWeuDQL5bFMVgpdo614vJTAY+M3UKrHopliIPI5EPVo3XbD9W1nWYOoaCUQyf/PJPNCrEQ5BAhXmqEhaQ9lmQHBJEUWKwQAtDEgS800M1AWA7MppdeRadVwgQqAxxKBSypOwzmRDIybVQNUejPgjOhdfDf/VvwUlptXimaXIMiXfvQ+il70BNTM4CaRYQyAfBJXB4/1IPXByHBw9FMZpIq97/5YpmvHEkhkcPRNlXc53E4fx5LsyrlfCXfWEkUhquWVbDvsZpk9w8kESjCCyrd8Lv4nFulwf/+6kBCDzw2TV+NNcK+OELw1A5YFWDhKuW1qA3rOCBvWGmQfj4mlrs7k9gfVMSf3tNF3zuCUAgDcLRnj5s3f4ulnR14O139sDlciIWiyOeSMDtcmJweBTr161A99FeXHv1xQwQCBYe29qPa+8aZABxVosD166sRURWcceWUQwlNbx/mZeZD9p9El48EsPOoQQ+u9aPQ4NJLGt24I2jMaYluXG1D1t6E1jV6sDj74axut2FVS1OvHg4ii0DSVy8yI2NC90MhBq9Ah7cHsTCegdePhzF1y9twl+2BXE8qGBpixP/8sYI/P02IBR73G1AKCahmfn9jAHC+//6Nxo/VoTHMaW0L8/CB0qzdVotTp7j2ItHcjjg9dZg61Fp0gjtiAerJa6vv9nqg8DMBYIfzX+1G5y7cdLNqpEBRN76J0Tf+cdpz0EpgLDQK2BtixNb+pM4HlHG1+8Hl3ix40QC+8IKU9u3eQSc0eLEnuEk9gcVeAUOaxolDMRVHAoqrPj20hoRnX4JDpEDOeg93h1j5og6B4fVjQ683Z9EnYvH+hYnukMKdg0lmf2+RuCwod2JnYNJ+NQY/vSpRThjsR/0fFFLJmUcOHgUvX0DWLN6OQ4d7gHlMHE6JKTUFESC82174HQ5cdqaU9Axvw2CwGMolMRnfrcLD51wsX7qHDzObXNhvl/E/mEZo/EUFtSKeGcgyX63rF7CaCyFGhePUFzFOZ0e3LE5gNGUiksXuNHoEbGjP46ekIIunwiHyKPZKyCUVBGTVTjpmjEFFy7x4pHdIbz31FoMBGRm9wjEUgwYXu+NYXP/7PZBsDUIud9DtgYht1yMaHUKahAIELIvQRoEKutLsCDxMgReAQ+1KrULDfX12NHrmYYwNiTo29StPGo2A4LgPhWNn3kZnMMLNTYKLRGEUDsPWkpGbMcdCL34vwFtctrPUgDBSrlb0RcPDdd3AX9zyTwsbnGh1i0iHI3h4IEetLU1obWlIedljvUOwOfzwOvxQE6p6A8kcc/mQfzopRDCKE+p7WL36+Q4XLHYg/m1IgOId3oT2DacZAmzZnMUgw0INiAUW/uTtJ+aZk2ipKmAMAkWOA0iJ8PBy+xPiWkY6OumOrQK+QAhcw82KBhZUqUdWwgQyEFx165dONJ9pLSLAFh32jpQhi8rnBQzgxF8p6H+unuhBo8icfQpqMEeODovg9i4GsmjzyH8yremJVyaS4BAciBIOLdRxaZlNVjS5BrXJOiZMHJcHIwp2HY0iof2JRDmylMkS89Y8h0z28McbUCwAcHI+i+bBqHQA+YWoqgRQxC4KXmRjYzcwmOLAYINChYKu0hXs9VJkW6Lc7TCtfyDUI6/BXn4bXanvLMFUvu50JQwkseem9MahElTq6nwQDEECJSxLQ4BKj8zWgN9q1xDS/8b6Dp4z6zOpGhUpW7UEc+MDwLNv9Hr6JuziaMKlTXO11e5x2T0HqZ+4Rs530zhp1IzKbJaDIU0CFNvwCnE4RcDELjqyGWuFxBsUDCyFM0dO3sBgYfgWwo1fBi8bylSof2AlgQ4Ebyjhdmy1fjxaUIpVYNAqX/9gf1wJEfAkTpQcGKofhVUwTHtWnwqCU+0F57YCdB5djMhAU1FbXAvmgbeAK8mTXRQ/lOKZVIkB10jgGB1dUArN2Ij95G5rtFkQfnu32gopdUzb2ZezMhLLyBlfBCi0YmkcFSsidViMAIIIi+jXhph5oZqaAQIu094xms36B2TbXrQKyn9x81WQBCbzoH3tC9BjRyGULcK8b1/htz7GsTW9RD9p4JzOCEfexlK4F2kwofGBVIqIDiUGBbvvxO+4AHKtACVd6Kv7UL0tm+aBAm8KsM/8i7ae5+FJ3qcKpjonxT7yAkJaBqEVIz9VGuzGhDoPvN9RerdPPTIykweAKMbnplNfS4Bgp55mHqM3nmxDBAo2qHBMQSpigBh36AHcZO8YoOCmWWX+5zZCgiCfxXqP3AfwAvgPS0IPPBxyANb4Fh4ObwbvgItNozIm7+EPPg61HifZYDglkNYtvs2+AL7xiMkZEcDTrScD8XpH8/JIMhh+Ed3wRc6ULVVCK1bRSd3TzYg5J9/GxCMPxsVBwQKeWxwDMLJV4eKjjQI+4e8iGXnYzUuRzuHggmZTT1lKiDU1dXhhz/8IQ4fOox9+2gTtLYlk0kcO3YMTz/zNEsHvGrVKjz55JMwlGqZE+Fe8Tl4z7sVnOgAL7gQ23knou/8Du7TboJr8RXQUgriu+9FbOdvkYpYp0HIBQgkoZTohcpPmBmoNLGgRMFp1eH3Y+0s2r1lS8AGBBsQZkKzU1CDcP3//LUmK/oLq9RLw3AJ8arIj2AVINCytLUJpb2spwKCLMt433vfh76+PraRW93oQSJI2Ld/H0ucZQYQON6LmnN/AMeSKyD6O5EK90EdOYzIlt/CuWAThMYlLHlS4uDTSPY8Cbn/lfF1X6qJIR8gWC0nu7/ZIwEbEGxAqDpA+Pqtv9RkmUNEpkQlAhJFYMEnBuAVI1UR6mglIGSWpg0K5l6oUwGByjtTalhFUdhPOVoGEtxutylAoOA+qXkjpNYN4Bw10JQE1Gg/EkcfAS95INSuBudwQO57AVoqCk0OW2ZicMghnLL7NtRmmRjKISO7z9kjARsQbECoOkD4xvd+wcZEPymNg6JyCMd5hJM84jI/rWqiR4zAJwZZ8qSZbuUABBsUzM1qBhAuueQS5hhVLijINTpW5MvhwBNPPGHMxECd8Q5wpNIfyyAINQVtzJEt8+9aijRmk1upGgROVbDw2LPwBfcx3wJOScAX3gfkiFLQOB5JRyOS7raJcZqbppP2LE1T4UgMwRUjP5LqyOMydTIKAQLlQfD5fIaiGKh/oxuOUedBpn2dUiOn2CIrVmBJr+282HWq+ffVNC+Dg4M4ePAgckYxECBMFSQDBqpbl6ISyzzCifQPwYNLiLFQR3JYnOlWTkCwQcHY7BIgvPnQz7F06VLDLzFjV8p/9N69e+H3+2G0FoOZ65cKCIxNVGXct0BUU1jQ/Sha+h6fFMpIcBDwr0D3ousQ87bmKChlZvQn4Tksk+Jb6Dz8XxCUUFUKoBggVKpYk1HhGAWEDLjk2iQrsXEavb/M8UbHZvY6+T6CjPanNyyUAOHQoUOIRCLjlxgPc/zi1/9eo68vp9MJQcif6CSV4hCVCRhSEFNBQCuP2tiIEMgh7fBobclOisWuaZsdikkIIEB47YF/KH5gmY+or6+fNYAwTRSqgiXdj8EdOjiuoYu5WtA77wKEa+bbcFDC2rEzKeoTXiU0CDYg6JuL7KPMzIslgPCFr906rkGgDqlqIgGDRLAwVjUxe6CUklXiEhgYjUGhwvUz2CoFCHSLNiTM4ETrvDQRvhw5jpuuWohN/h1QD9wBTZ2gYp3d6DqMq1kF31W/hVq7lKWRJqdMeojpK48g5eabb56ksgvWnorurutB1RztVnkJ2ICgT+ZmNiJbg6BPtqUcZWZeLAeEqcTCSixLEvtJXyxdMQ6pGEZCcVBJ2JlslQSEzH3aoDCTM1742hlA+OwV87Eo/ir2bb4PmloeU5i7fgk23nw7vK3LbECo3iUxPjIbEPRNkpmNyAYEfbIt5Sgz81JWQJgKC1RimQGDKEJRkognZMMOMKUIKNe5MwEINihYPYvW9UeAoER78eEL2vDiQ79HKBS0rvMpPTU0t+Prt/4j5i3osgGhbFK2rmMbEPTJ0sxGZAOCPtmWcpSZeakYIEy9MRrsTDpsZMYzk4BAY7C1CdOXPCmaMlExpTwQZs5l3tHJfnznr69gWq9yNgLmhQsXgv60TQzllLQ1fc9lQDC7QVsj2XQUA3sfZiKBinRsphaBkf6tuq+p/Rjd82Z6XowAQt4ohmwfhHIJtlz9zjQg2NqEyTNLcNDoTSGpcEgqgJxKh81WqrEHODmAb3zhChzsHWUZFsvVPC4HNm5YC6/bqQsQQr7lzAch4F9SriHZ/RaQAAOE/jfRdegeiMnRqpSVniiGXAOnjUDvZpA5v1ioYTkFZHSjHX/P6gSQ7Hss530Uuw5p3I20mZoTWnd5oxhsQDAyhYWPPdk1Ci4HsLw1iVRKZTk0okkOkQTPQCGZ4pAqMyywF488gJs/ch4+893fI8S5DXv+uwUeLoeAUEKBUsDHpqulDnd+/yacsqhFFyDEXS0YaNmEUG0XNIMvOutW6Enck6aifmQn2vqeA58jr0U1SGYuAoJZGMg1H3o1FMU2bqvnOt89VjMgZI85k2o5Z5jjbAeE7qwwx5l1mZxYdicrKDTVAq01sUmqRlUFojLP8mkkZA6JFIcEJeAqw2RNAMK5+PQP/4TR1tMBTtD9Pji7qwkXr5oHv8eBvX0BPLPjOLqHc0dBnNLgwR9vuRTL5/l0AQI5+CqiD4rk0z0e+0ArJaBBlEMQqzQHAt2pDQhFPsAMgrWVcFJoZDYgWPmcWtgXmRgIEOJjxZpozynDvmNqxEyxXi2DMXUHxk6i6JblbSkkYiMQeIHZ5gVRnKT6pMRbcSWdfItSesdkMkXwzGfBilYKIKydX49/+sy5uGjtAgY4A4Eobn9yF37+6A6cCE3PpGgcEMBKOqsCFWKqnNnFCrlWQx+0RCixlKDGc2abrIYxljoGGxBsQJgJqJnzGoQMIGTvyRbtOaU+8+z8k0GjUOsGFtZHMTQ8wjZYgecZJJCaLfMnx0Jl006M5JvAAEHmmVYhkkjDQimtFEC44wsX4pOXrRjfumn9HOoL4O/+9Ab++MqBacMyCgiy5Mdw43qEfIvsdMkmJ1lKRtAw/A58of1zEhJsQLABwQYEky+HXKdN1SBkH5MBBBsULBR4ga6WtACpxCASicSko3iOY1qENCQIEAURgiSNmyEysECaBYIF+jOc4CCbgIVSAGH/L2/Eknb/pLGPRhL4l0d24Dv3vFkyIIRrlqK78zqM1i0tGRA4itYg9VS5FzdHug6uOnwmNEBIJdDR8zjm9TwGXpMrs7AreBU9gJDLDk//ZtRJMQ3q0xdQsQ0q1/ULnVOsPyPiNeqDUKhvK8eV7zo0J0bHnG9chcab7xp65+Wk0iBMnaxqBIVcC2o2axlEAVgxT8HQYH/B8NcJWOAZKEgOBzNDZFoGFsj8QJEQMVZhlGc1QfS0UgDhdzdtwueuXDXpMgd7A/jWna/jrtcPlgwIwdoVONx1PUK1nXpuZdoxnKbCi1G0OLrhdw5C5BOsHoo+yZi6JDRwSKUcCCf9GEguwIjaCpUvb/hooZFyWgrzjz6OBUcfAq8mzd1UFZ9VCiDk2yTMbFBUbC1Xy7fhmQ1btGIqjN7fpI9Iq2ybeW4kX5ijmTHTnOTa8AvBYb55nAqHJzUgjG8+Y38p90eXFYveSB/VABYNNUCzO4hgSH8RnAws8IIASRBYem8+ByxQ9EMiySGUoKgIvmAkRCmAsKq1Fv/6+Quxae18tukOB+P49WM78E+PbMdgZLJWhObHqImhlFTLkhZHh2MPlte/hQZXHxxCHBynguNoCy/fima9axSFQpDQgIOja3Agejqi3GRNi5H1WsqxBAgdY4DA2YAwLspCG45RzQI9Q7nCgzMbUT4Ngpkv31LWQuZcM5vtxAdJ+Z4dukYhaDM6btrsc234hUJcbUCY4qSod8HNbAUJvaMs73FWgQU5Fq+YryIwfCLnAtZzFwQL5J9Ai90hUS0QJwgcMo0iHihEMl1dlEMwISCamB4JYRYQ1s+rw+WnLUBHgxcj4QQkMV3m3OkQ8PaBATy/pw/HQrFJt1IpQCA4WOzagtNbnoXPNQKen5kiaQQKMbkG7w5swM7QRkS4Oj1Ta+kxNiDU5Nx0bEAwt8zKbWawAcHcvFh2ViEfBD0XsUFBj5SmH5MNFw6Jw6mtSQwM9pvrbMpZ7EuFfgQBTqoDQpqFKbCgaqT65hCIp00Q8SSVEBuzqbI8CPrDHD98Rie+9/Gz0NbgZc6TSTmdXInG4JAoNDOFJ7ccxY/uexu7+gLjo60EIHBQ0e7Yj40t96POc4JpDMrZ1ISGZIADRWIKlEIiR4vLXrx14kq8Gz4bCkcRGZVrNiDYgDB1tRn9Es8+3waEtDRsE0ORd5gNCuZf8h0NgJQaRHKKc+K0Hsf2NiNbXMaGRxERLqeTwUImEoL6pw09ofA4NOgAFRY1o0F4+jvX4MLV8yCwKmS5W+9wBN+/dzNue2pXRQHBpYWwzvM01i14kZkUytnUOI+FyjqsX3Yenn7rYYRaD4PPkwju6NByvDF8NYbUBWU0cOQCU9vEkM9JMd/asE0M+Z8aGxBsQND9Ti3v61f3MGbVgRS1uKpdwchwYefEkm9qzGGfXo7kr+ByuSASLHAc5BSP/f3mAeHBv7kSV525CKKQP8Ty6EAIf3/3m7j9+b0lA0KybjHOaHagxS1A5Dls7U/gUFRBSgOunOdGS62AR/ZFMaik0CIexUVtd6LO2w+Jl7CoaTnm16edHIfC/TgwsAuxZASS4MCp7adhz/G3UetpxKp5Z0CFihOBHhzo34kGbwvq3E3oHtoLWZ3u/a8qwKLEGfjQZZ9ALBbHc68+iV3CM+DzKAjklBMv9H4IB8LroXE8miQe71vmwbOHYvh/NjXgtleH8YGVfrgdHGpdPJ7aF8HuwSQW+kQcDCk4FE6bSc5ucYIusXkoiSgJAECbxOP9p9bg37YHIZD5yi/hqqVeljqCU1XsePF+BN65j0JmSl5W1dZBMSdFn89n2Ct+pgEhn4yt2pzLoUEopU89a8pMjQarfRCyxzlnUy3X1NTgaLBuPFGSnskpdowNCsUkNPF7vwdo80YQCQcqXryLwu+osihEL44EPEhp6QJiXNKYiaHF7cD5y1vgknJ/LlOfR4bC2HJ0BDFSU4y1UkwMZzQ58On1fiyok5hD5HefGsQ1p9SgqUaAz8lD0TR84/F+iMIevHfB7yEJ6c1Q5EXMr+vEktZVCEQH8W7fdtS4/LhyzYfxwruPoXtwD5a3rUWdpwk8xyMQG8ah/t1or1uEZl87tvW8jrgchapNXuVaMgVpVxIXnvNZ+FvbcP+WfwPqoywcs6mmHWd2XsAiGnYf34zu4b1QVRGvH7sWuyNnwys58KUNdThvsQe7exMIRlU8ezCMv7uyFT0jMmpcPO7fHkRIVnHjulqE4ir2nEjg6UNRfGC1D0sbHfA6eNyzOYBHu6P48aXNaKsVse1YHNt64wgkVXx5YwPTVMQSCl587D7sfO4upOTpyav0r9zqPLIQIJATL5lUjW5eRjfifI5tmU3N6PVzSToT9ZDPK38mZ8fM5m10vEbnhPo3GlliZEyDg4OsFkM4HB4/raOjA11dXeBmMtUyvRw9LgmRuLmYZrfbjWORRiTGMikaEUqxY21QKCwhmrslrYAc7Ycim5u/YnOg5/dDcgPiKRfLTpgLEHhehMRTnDglb+LglMjBMf0Fm1I1yCl1mpqcjvM4ROZ/QBuTU+QRl1Pj6aFVTTMdxUC1GFbXS9i4wI2NS7x4aGcILx2J4Qsb/GiukfDf2wO4bLkPP3tpADy3B+8ZAwQCIo+zBmsXnIOkkmDaggWNy9DuX4A6bzMe334XoskIaly1WNSwHMva1uDJHX8Gx/FY3r4W8+o6EYwOY3//Dhwf7R4XrRpXEN3cB3UkCu+KFYBPhNicgDZmcSHNw6UrPsiu/cjWP2Eo2gdVI0C4GrvD50LlHfj2+Y3Y3RvHZafUYPeJBA4NJfC+FT60+SUkVeDBHSGEkilcttSLx94No9EroC+YwsbFboRjKdS7Rbx8KIonemL4pyua8fqhGA6PJrFzRMa6Zie+sqkBJ4I0ZyoOv/4gnv/LH6EqJ5cGwSwg5AuP0/NsZR9jNSDkG5dRjQeNMd+GawZmzFzfqCytmhO6rplcC1PHmw8QOjs7ZxYQnJIIt0vC6BQPcb0CLycgsIV3cmVL1it2dpxTAroak4gEh0xHLxi6YI6DZdUBAoSUlo54yAUITV431nfUo7nWjeUd9ThvRTv+9bEdaPQ6cbAvgJcPDyKhTOCgWxSwcn4d3re2A49v7UFNjROXrmzHszuPIxBLoj8Yx5GRCJbVG6vFkAlzVOsX46ION85a4MLxkIJaB497d4VwXocbjR4RDpFj/37vniCaHAdweccdcEthpj1Y3rYGNU4/9vRtRTA2wu7ZJXlw1uKL8ebBZxCTY/C7G7DplKvwxsHnMBA6jvn1XTir6yJE5TAkwYmD/bux+/gWKIpCDhxI7hpAqDsA91nzUdNRmzMLtMhLEDgRiVQ6kkNJOfBq7/V4N3wGGp0S/vqsOuYDMhRW8OttQSxyC7j5TAIeEUcDCp58NwxB5HD+AjczpRB8vHwkhg3zXTg4mMTyFie6GiX8xxsj+OSZ9TgekCErGo6MyggkUvjgWj8O9CfhFVQcf+tB7HvpHpxsYY42IOR/W9iAUFo2lKoFhBo32ZKdGBiNgocKnmK7Dbg9lRsQMkvSBoXpD2dLLVDDjyKZiFbcvJCGNw4jch3iKTf7ez5AaK314qzOJsyr9+AD5y5GIJrED/7rbXzlvWvw1p4+3Lv5MOp9LhwbimBRsw/rF9TjM5eswMNvHcZfthzBpy9YjmvPXsx8FEbCcfz7k7vwyv5+rGz14cefPBsLm9y6ijVl50FocnBodPA4GlMx3y0gnFTRl0xrMihsNJO/xc8P4Jy6B9HZvIPdIc8L7HeqNlHGmr6S3KKHwYEGFQLHQ+AdSOaoWEhaiIycwj1BoDuAZDAB19oWuOf5wBVw1MxeAYFoM17q/yB6EqeCBweXwIGUeJnqlzUihw3NTvSGFURSGprcAo4GZTh4DgFZQ2SsUle7i3IsaBhRNAYOdO9+gcdoFrDRdWnU87wCOj0c4jsfhnPfAzYg6KRrq75WbQ2CToHrOMyqOZnzGgTa4DWpAUcGFUgcvUCSEDmZgYIeYKgUIGSDQkazoGMdzNlDaB9Z0qIiERlAir5EZ6AlVCdG5TooWnYmxuk+CBwnwOsQce6SZnzkvKV4bOtRPLC5G7fdtAn7e4bRPRDGeSva8MP/2oKbLj0VazqbsLjNj/d+/y8Yistor3Xh5otPxXkr5+G+V/bjmR3HcN6p7dh4aiuuWr8APhdvGBD0ikvSEljq2oyz5j0ClyN3VUm9fU06TgNCOweQODgM98oWeDr94ER9dTBIe7DzxLnYFrwI0QrnQjiZwxxtDYKtQcglgTltYiBvdM7ZiIMnJm6dNAgSL0NisKBAYD8pCEhNiwMnQDgaaoBc4T1qtqRvzvdI0ZeayGusYJKZbKM+N9BWE0v1O7IAACAASURBVEMiGsiZdc3UpmXgJNIYEBzEsrQH+TQIDkHE6QsacP3Zi9EzHME9bxxEXzCOH35kAxo9DpYU6antPbj3zcPwCDwaalz4h0+fh8/f9iyGEgp8DhHXn9kJt0vE7c/tRWIsDW0pTor6b1VDLTeIdbXPYEnjVjilycma9PeT48iUivCxEFyNHogeSVeBSUWV0BtcjLeHL8cJefG45qakcRg42QYE406KVn2t2hoEAwu1yKFWzcmc1yAQFTu8zdjXm1uiBAuUb560CyIvjwFDKg0M9OPwoCdYb93MGexptpoenCJQ71FAmlxZ4ZBIpesdTNHs5pQGwUVHvQZBGYYiJ2bEvJBQXRiV/ZO0B/kAwSVJOLXNjxqXhO09IwiMOcRu6GpCa60L7/aM4uBwBKkxUvK5RFy6cj4e33qURS2Qg+MpbRSyJ2LLkaFxNXplAIEqgaqoF/qwwvcqFvl3w+scBc9PmBgMLllThxOQJZIe9IaWYFfgHPQmlyLFVb4mw8kOCBTmmKsVcsYrVCchX19mnPuMLqxCXvn5+tJbfChzfjG55PsiN3ovmXfP1PPyXd/onFC/5YyuyA5zzMh4wYIFmHEnRSoF7Ktrxa4efVNCsCAyOFCYlkHjRISSXn0nl+mo2ahNaPFpaPImIfAaA4R4imfFkaJJgoV0oSRKbZyrUWGmRfVJpOIjkGfAvKBpHEYVP2Ipz7QvWDNhjmaXRaUAgY1P01DDjWK+ay9a3Efhk4bh4GPgKbNiaf5JhW9fA2TVibBSi6FEG45HT8Fwqg0qlyeDkllh6jzvZAYESZJAYd1GAUGnaMcPy1f8p1KhiYWiCArVFjB6n/k2aTNwZKWTZL77oGq4uRpdu1Boqh65VG0mRbrphsZ2bDtiJL9e+paZMyOnsWIy1dBmCyiQ/8DCBhluIcFCZLIfSJkKI1ElRQYJlHufQ1wmzcLELtTgBfyOEJREuOLRC2QOoA1rMO5DQp3+BTtnAWFsgdMG6dJi8IpBBgjlTL1MM05KFVlzIKL4ENe8SOXLnFShB9Cu5mgDglVLzQaECUlWLSAQrbW0zsc7h40DglULxep+qh0UHCLQ6glB0GiD4VjZZUEUIAjiJFhQ1bQ2YaL0Moe4wqPdr4FXRpBMVD5Rjc/tAEQPwrKDjSucpPwE/LgfxWwDBCkZhpiKMyWAwolIcgLgzKFGTskQ5Qgkjco7z51nxeizRzJoP/4MGgdfA8HCXGvFMinaGgTrstPYgDALAIGG2N4+D1sOm3OWq+YXRLWCQr1Hg5cbhjYWBkcZ9yi8jULoRIFAQQCZfiYVSCJfBaqmqPIsyiQRC6Xj6CvYCGZqPC44nW5QMCyZQDLwQn9GZB7hOGc4k6LZWyjVxCClEujofgjeyBFQUSaFd+BYwyaE2tZBI0ePjNYAGtzhXrT0vYSa2DF27MnZOPCpJFzxAYjyRNGsuSQLGxDSiX/yNdvEMF0yc9rEQLfb2tqKkbDKKvJFZX78pT9XHvyp33sz+f1H5oWOOoVpAGQ5OU3E2cWRGDCIIkRJYtCQNusA0WgU8UR8RpwTHWPVHZnWg8bEkgaApVmWCWJkIBQcxkc/eAl+ctfLWLJmg+HUtHrXXZPXgZuuWIHmWslUmKNbDmPZ7n+FL7AvnY6L4xF2d6Cn6waE3U0svwDLi6DE0TjwNub1Pwtpjm6MemU+14+zAcEGhHxr/KT0QSBhNDY2ppO/qOkXPam2yXEuInOIJAUGDGORZXP9/VDw/qyImKByAy2eCIRUqGh4IiXVIc0CQYNAsCCJDBhisRjkGUqtnB1qRQ8MOW5JZBqhmgy0zaoawoFhfPJj70dSc8BHTl1lcuKjdMwdrY3MUXDXrl1MJkzLUVOD+vp63HzzzQymMi07URL9m1sOYdnu2yYAYQzBEq7mtK0/M25VhSiH4VBCdl7POf4GKAYI+Yo1FfLuL+R0l+93uf7djOe9mekq5K1vpQbBzNiMnjNb5qVqfRBI4D5vDSSnc5Ls09ni6Idj4XcJggWZbM4C+/9qMMO6JI2NL1lZTbvRNZreOMd+/G4NNfwIMJYy10hnmQe3Ui8KPWPLjIlpOkSRFW+KhQL42EfeyzQMZjyS9VyXjqH+KQyI/rQOEPRe3T5uLkqgWLEmgk+jm3c+lX2+jdjM822m+FCx+Zt6n1ZGClQKQgr5OeSaR6vHpXdehoeHWbGmSGQiGVtVhDkytTVH9m+efQmSOpte8tyUkA4CBtrkaEMmWIjKAiIJCsubcFArtuCs/v2iRhkuSWXaDnKWC8V5xJLVEVGR8145YH59ClJqFIkZcDC0Wv5T+2MPnKYhGh7FpnNX4dUdz8EpURGn8rQ6fz3+6sa/RnNjqylAcMghnLL7NtRmTAzlGabd6yySQKUAodBGVC2AoHfazHwEWL0R5xvrbAGEqtYg5HrRCzzPYIFszmRvxhTHFWbHJ2jQgMMjDsQSld2YaTiLmxJwimmPgsx4qGBNOCEglBAYvChV5GhN+QuaPFFIWhBKNQ1M75tAx3H0QEaCw7jyijPhWZ7EqHICWpnUTR7Bh4u6rkONWG8OEJQYlu35LfyjO+akR76O6bIPmSIBGxCMLwkbEPLLTK8GYVYBQi5gIK2CJEqQHBI4fkJ1TFhwNODCqIVp6vUsUYFPYb4vDI+DZ/bv3Go/sIRDwbiAQExguQUY1Oi5QBmOcTs0+IRRCNqEXbwMl5nRLscB4coNcCwLYefIK1C14jYg5m/B8XCIbqxqPhuNnlYcGNqO7sC77Hwq7zx15mqlRnxk1dfQ4Gg3BQgkKIHCHOUIOE2DSwlj8YE74Y5S1rDsVcIh6WxCX9vFGKpfzZwZK4vDMzql4xenUlaSHMa83ufQMPwmOZxUx8AsHIUNCMaFaQNCmQHhi1+7dVY9ahSKl/GudzmcMwIIEp9AvTTC0j3TApUkEZLkYE5ztNFQm7pwmeNlkmfmCDJFkLaBsgKOFbYz/mQYPKPGmUKNMApOrXz+AoNDNX24GUBwCm4s9J+CVW3nYHnj6axS4mjsBBo98xFIDGH3iTewZ3AzBmO9SKny+NisAISpN+oL92HJ3t/BmRgYhwRF8qO3/RIcbz8f4Cuf3tj0ZJThxHSipCew4OhfwKvTo3DKcMmKdmkDgnFx24BQAUDIXGK2MbnT6cSI0oRAhTUITj4OvzTKACG70ZcoaTvIPJLOJUCwkI4EyF7I5EtBGQrDCZ5FalCxKfo3ggUzxZP0PFYuIQGvGIII8ran7PozpcvQM1pzx5gBhKtP+Susn3chjgcP4q3jz2HP4FtIKjE0eeZjXdtGrG49B3IqiacO3MV+l2nlAATqW0wE4CLNAlIslXRScCHuaoDG5061ak5Ss/OskznVMtWtqVYnRVpNLElZVv6Oal5hVvtg5LvXmfZB0DsH2bUYMueQk2JXVxc40iBM7ciKkDq9gyvluJkChBohBK8YZmWpCzVyvsx42NOfpF3gWejgZCUxZQMk7QKlNk7IPAvrVFjIZynSmX6uyFNZ7SQrq01/0vgJFqi09lxoZgDhi2f9f2hwt2DzsWexa/BNBONDSKbi8Dr8aKtZhLWt52N+7WK8dOQhvHLkobIDwlyYh3Ldw8kMCKSdrFSYo17bdWaeC2245VoLmX7NOFWaGa+Z61gZ5mh0Tkg+hZJOZc/L4OBgziiGxYsX5waEceGP/aVavzVnChB8YgBeMWLoK5wWZSZ2fyosZJM31T2IJdMRGpTaWFE4KJQMyGRp5nwPaKbgFVXKpNLaBAtUUpsVAJql2gWzgDCvtov0PJBTCewb2or+yDG0+RbBK/nYv3klPzb3PmsDQrnf9kX6P9kBIZ8GYYanhW1EM6U9yGQSzLWB5gMBs4Awm/IwZKID9awN04BQ7aAwU4BQLw3BJZi35WcmbzytMS+MF04iDUMmSw5pEEi7QKBACaPohwCCckHQ76wCN9IiUAplB5dkVTIJHggY2M8s0i6UCgiZ9R6VQ3i5+yHsHXoHTsGFCzuvx77hd2xA0PO2KeMxNiDkzoNQRpHr6toGBF1iquhBFQWEqaBA/2/V5lSK1GYCEMh23+AYZGp6q1pGu0CaBYIGylw4XmlxzK7HKutR0ihWQIlHPJmGBYqUoH+3qtH9CbwCkaMfGWSWSP9dMaQxsWo8RvohQAgFArjqPet1RzF8YcOP0FG7ZNIXUH/kKG5745tQ1RSWNZ6GTYvejx39r+HVo4+UZGI43PUhhGo7jdySfWyWBGxAsAFh6gNhaxByvyIsA4Sbvvp9jZztjH4pVkMxopkABPqqbpAG2Zd2ORqpugWBZ8WSGCiwAko8+zuXlQ+CtAhUQImcHRkkkIYhxTNYoAgJqxrdL9Mu8EnmlEmgwNYLRXBUBSZO3Cml6R4YieO6963QDQiXLr4B6+ddBL+rcbyjgchx3LPj55jvW4rFDash8Q683vMY9g9vMw0IUc8C9HS8F8G65UXTPzMrTxEIz4WEmkFOpOtUA+jrXauiEsO840+h+cRL4HSEr+rtt1qOK5Zq2TYxTJ8pGxDKDAgf+dIvNGFsE6CXP3noG3nPzCQoECDIfANGo+mcA1Z+Sed7aZCM6hzDINt9JVpGk8A0C1OgIXunSQMCwcKEOYKyTpKWwarG/BTGIIGggTQNJAeSSaYRuTodIuKJysgn+97CshfDoxHceM1i3YDgc9RjaeNaLG04DUsaV6PG4UdMjuDA8HZIghMnwkewf2greoL7mfNiphmNYlAFJyLehaBaC0UJYewi+TZv62Z0lgECOY9GjsARH6wSHaZVT1a6n2KAYMZJ0cwIc+d1yY+S1WBiyHefRlMa5+vHaifFcs+LZRqEa7/4GzbzHKeyl71fHIWU9cLXeyPZy6dSXyUECG6Pj9nmCQ7kFJBkNnuOJSZidRssbuTQVyeNTNoULb5E3u54CpfkKRKCZ7CQ+VOggkXZ2gUqeJVKOzqORgWmZbC6UdnhtHYhrVGQyBTBy/BIGvxeEUOByiZkUjUBA4kmJEInDAECW/vgUO9uxQL/MixtWId6dzO6R9/FwZEd6A0dRlQOThOfUUCwWv52f3NPAmYBgSRhxss9lwQLORsWqodQCSdFq+4xvd8Zfyeaub6Zc4zMS6H+9UYxFAxzzAACDYqc0wgQXHyipKevUloFAgSvt2Z8rHRdgoK0I19aq5Dt4Ecq6FKbS4ihVgxMy4FQar9mzs+QO5VmzmgYKGkT/T+1mMzjRFBEpAKpqJlmgVfR5lfh5qMIhCsHCDTvYcWPkOyFEj5uGBAysqeXRp2zGR6HDyOxgZxgkDnWKCBovANRbydi3g5QYKkzfgLe0H4IOQpnaZyISE0XYt6FrKL1XGycqsITOgBX7PicNBeYmTOziZIqCQi5NiS9G1G2TMxsnEYiFczKxAw4FJprM/dpFBDyXUPvvGQXa8r0NV6sKRsQ6IuQYvxrhLCZ9T3tnHKDAivyJKaTEgli2mafbaenxEMUHkg/TLugcGzTjCnp5ERmkhJR/gOSUbEcCJYI0EAnmdCdjEmCalgkNAcGwm7m1FiJRuWkl7UoCAYGi5aTtnI8SdWBEbmRzbMeQBA4EW2+Tjh4J3qC+yDrzMoncAI8Ui0zNTh5j6FUyxFvJ451vBch/2KmsxDG0gY3Dr4GQYlNQC7HI+hfjcOLrobinPCLsFJe1dGXhvrBbZjf8xCcyeHqGNIMj2K2AoLZsEGj4rYBYbrECpk+9AJCphZDODyx7+cEBHI6cwtR1ImjRudO1/HliLBnQYEcD44lIErnGqDNUZTSEQHZ9t5xYNA4pBQgRpUYE1QngWfAoKfViEGWA8GoU6eevq08hmQSUz0YTdaylM6VaI0+Dc2eCAKBQCUux65B9zYsNyKpOpmaNR8g8ByPBbXLMa92MUTBiSUNq3E8sB8nIj2YT5u2ll5HO/tew+HAbvCcAIfgRGLM70DTVCxpWIP17RcjlBzB8cBhnN9xNXxio+5aDJOjGDS44yNoO/E6vJGjVKuU3U9S8uNo+4WIedtY3QWzTYSKeUIC830CnCLVb5i8Bqi2gZLS0BNIokd1QUHlMzU2Du5E56H/C1f8hNnbnFPn2YBQeDptQJhhQKDLk5NivTg8ljCnPM+fhU720wbIaJb+dayMdHZyojRRTbwoM8BAmgQyRZB2gcpI09/zFaiol4ZBZgajTdYcUDQRItK2+nJHAGgaj0jKi5BSa3Sopo4n0a6Yl8LocD8qmVAkkXJiRG5gavtCgEDzThu+Q3DB72zEpUtuwKtHHsZ8/zLQ5r/txEs4u+NKZlqg2gvvP+WvoKhJ9EePIZAYRM/ofgYHo4kBzPN1oTfQjTUt56NWbNINCN1d1yNY2zUuXxZSqsTBqxPrQeVEyKKHrV+zrUFM4ZYzXbh2uRN8OAD/kqU5uwoe3A9FcuOZ48AvXgujO+moaFRD4+AOdB76kw0IY7NjA4INCPkkkM/0UVENAg2OOSpKI3BUwEu/nKCQEXRGsEy7MGarp6qQokiFlSZewky7wWohkA8DWEGlqMwjHE+HDqaZQwMBAkGU0RZWatmGTY18PTIRI06WxdD6utCKJiEo+5FQnUaHaup4nwfobExicIAKDVWm0VwNJZtA8EWtMCCkx0SagQsWXYs6VwueO/xfOK39QiSUKAtjvHjxhxFLhvHW8WewrHEdmjztaK1ZiDd7nsJg9DjckhcL/MuxpGEt0zSc13E16h1tpgHBSilRfq2NzU4cCCRx8xoO/+uqTmCwF5Ej3WjdeMH4pTLwRrB84sUX4W5rhdixCP/99gA+/3AQES2ttRA5oMnBY1TWEJ9SUcwncKDrNTp5uHgOh2Mplrjr1FoR3eEUSGEVklXQqqbf14qk5VFZRtDsZgPCZHnYgGADQtUDAoWv1QoBUHGfSrVKgEL2vWTAQBJECKwSYxoYsht7l43FiVMIIZkiYrIGpzYKAcaSJNHXLW3W0ZRn0jUyWgQHn4BDSMLBJSxLwBRPuZhdvlJtxTwgEuqHLFcmvNHnlhBKeTAU9TLfEj2AUOdqxrkLrkKNsw4vdT+IvlA3Luz8IBY3rGFagiZ3O7b1vYzXjj2O9ppObFx0DQ6P7GLAQGCxrn0jljasxVvHnsFQuA8fWvllU+WeaYPt8Ag4p8PNNEn37I8gLGvodAvojacgcRxIimc1O7F+vhNvHokhnNKwe1SGPGWT7XTz+B/nNOCud0ZxdocHQ4EI/vXjC9FYmza50M7NMVNbuh09fgIvv7IFq1YswYrlncwMR3478WQKl/2frXg55EGNyOGTK3147yofXtgfwZMHonhneGLNn9nsxHnzXdiwyIMaF4ffvjoMMmJ87tw61LoF1tfvXwvAKXFY2erEokYHnt8XwfPdUTR7Bdx4mh/9YQUPPv0K+G1/sDUIY3NTDkCw0umuUBRDpd4zs+065ZaZ2XoP2XLM+CBEIhNVDzs6OtLFmrKdFNNfWCq8Qhg+ITQjc1FpWMjcJD1IDnJ4ZNoF8l8Qp92/pqZAjhyyotNhYayHlCYgpPgRS7mLypTkT+WknWM/2TkGip48dgBVAYwpXgQUv95TSjrO5QSWtyQxUCHtAc1Vvc8JTnQz00I8ySOQIG0PEBo5gRuvzp0HgfIaeCQf4nJ43Lcg142zqpy8E5LoQiSZ9sehDZA0CIqqIJGKwWgUQ7D2VGRMDH6Bw2fW1eJDp/vxjUf68WpfHNcs8uBDp9Vhf38cosjh928HcPOZdTil1YmB0P/P3nuASXKV58Jvxc5pcti8q43KAUkoCxASUUgiyEQbCxsbGzD2j+Hea4Pvb+zfXPvHxpgL1wHLNkaWsY1ASCAhJFBOq11pgzbvbJgcOnfl+3ynumZ6ZjpU9VTPzoo+ekYz2111ctX3ni+8n46dIyUcGFNw2UCI+RSYpoX7DuSwISHinE4ZDx7K4Qtv7sHdjx3Bvb91PoSKsFfarwcOHIOuGzj/vM04cvQkXj14DJdctB29PXMg8vb/9ST+Y7IDYYnDJy9O4Mr1YRyf1PGTw3k8cKwAxSRKboAAwmUDQVy1MYyxjI7HjxRwx4UJHBpTsL47gKJq4gsPj0MQOXzy8iRkmceXHp3AmGLi7ZuiuH1HDIcnFHz/p0/BeuluyMW2DwLtsVYABNsPy31pJt7ffe1zV7p1oGtUdz2ipFk22kaVVHzvt3m0VtSHV+Dmd78aAQRyUmTJmhYCBNtRMY+kuHyOZgvXrxXOjB72iC0QypkY5bJ2gU5ZpqEjXyhA9wgQNFNiAMG7ut9iVMfEYmhrF7Ry9ET9dM1eAInXeal2fSQA9IanUCx6981opn16uGKRCASJtD5zqbTpYUxPjOLKq7a4Jkpqpn26ZykAYSDI45cvTiAoEE+Fgf/zcgaKZmJTVMBHLknhWy/O4GBOx6XdMm5YH8Hjx4p4aUJFmmxfC4oscLgwKeHXrkzhv3ZnkM6k8dBnzoUszjk40ryoqsZMaIGAhOMnhvHK3kO49KLt6OvtYjXSd7d++WncN51EUODw1rVhvG1HDK+MlPB3O9OYqbAPrA4LrP+DcREix+H7ezKIBnhcNBBCMixCloD/8aMxFDkOv3FxAsmwgD/7+SREgcdtW6KIB3gkQgKefe5ZDD36d+DyI80uw2vqvjZA8L6cbYDgfc4W3lFNg1ATINDNQb6IpDjdUkdFN8NaCUCB+unQHxNIMAyyt3rTc5DmgJwFDWuxVsLNPDjXkK8CUTyTdoF8RciXgfwiCNRVOj1S2N+U1rVs0QsByUBKGG2542XlXNGaiIIASZYhUSptdlKykJ4cw+uv2rpiAUI+sR7XDASh6RZ2TqgoGLbNQOaA92+L4dCEip+PKcyVti8i4M3rwggIPHaOlvD8mIIF7gC4fiCIjR0yfnIkj2MFAwOyhZ98bBW2DMRm/Rxpzw6dGIZhmOjqSuKJp3ZhYKAb527byMxrVE5NFnDTXx/C3pLM2u4NCnjLpggiEse0F0+PKMyHQOKAKweCOK87gKBEmhYOJ9Ma0kUTF68OIq9Y6I0L+OoTU0ibwI2rgshoFh47WWT3b++Q8YZ1YRimiWeffQ7c7rYGwdnXbYDg5W1oX9sGCN7nzBNAeMdvlJkUK2ybZBNPiOlloxN2M8SVAhbc9HXhNXkjiqweA0UW+FnIX0QSNEicyrQMDlBQzCDSWtLPpurWJQkmglxuNhMk9YNMJbUiNUgD4BeBiNMxhyiqkJnGddeft2IBQmUUQysWSOCAtw1o+PLtGzDYEUA4MB+UptNZmJaFeCzC/A9KmoHxtIo//9FxfH2PBXWZQmJp7G0nxfk7oA0QvD8RbYDgfc48AYR3/sY3FvEFSdAQFzMINuGtv/Tu1q+h1eRLfvefzvZZjSIY5hgf/W6D6iNNAgEFMknopsh4Ac5EISpqO7mTnaPBSRlNVN42gAGCAQmqZrBTpJ+FXhb5zBTefNOl4DeksWv45ywjYysKhUq+/5LfRVdoYEVEMVSOUeYtXNdt4PaLO7CtLwJKIb4waJKeIwIKRydLeGD3NL5/3ETB9BfANpr3NkBoA4RGe6TR922A0GiGGn9f18RwawVAcIQv0eZGeWIM9IdRsXEXvV9xtgAFyhFA5oWFEQzeR3z23UFkUmQSId4HxyQSEC2kYjJyhRIDCX4WGyBM44brzsOh7E7sOvi875oKp79diR587iN/ilXd61wBhGx8C46vux1pxqS4PEW2dMRYMi3bTFZZiCiJrBtpS4TOkZahed6FZkfTNb4ba499B8HSWLNVvKbu+0XSIDTDvlhtsR2AUO07LwmLnPu9mo8bbcBa5E5enTT97ldlvxsCBOfiygiqsJBHQpg5A6+NRlM+//szkSTKSw81S2IaBFL7/yIXSu4k8Ab64jqisop8vgDdz7zUZXtkMTeDm994OZ54/jEUCq3LB5FKpvDxj/4Wervd8SCUgr0Y77kaudhaWBwHXYqhEOqBIdgcDpWFs0wES5MIliZW/PPX7J62YCE5tRfdY09A0s9MxFSzfW/Vfa1I1uRVENcz/fkdsufVk7/WvPsR6jcrA5vh36+zIZaaJ6FRv/wYu5OsqfJ9SU6KLMyRNAjVxhfgiyxxk1CmgG3VQ+FnvStRq0DAIKPHoZvzeRb8HPfZUhd5t6/usABthkU8+O2HQPUp+Qx+6d1vwbFjx1o6LeFwGDfccAMoBe/evXsZ/wO98KLRKFKpFO666675AIW4DcQ4DJFMTRyUQBdG+6/BVGrbPJBA4CCaO4mBUw8jkht6zQIEciiV1BkIBoG45cr/2tItseTKGwEE2lt+CdVmOus3QPDahzM5duqr3+8rr+Ovdr1fAIHel5U8CLO5GGoBBHJUJMIkUg2fbWUlAQUyLWT0hO8OimdyTYiAMiKbTEVNiaDcuBLQPV1xIBUsoZhPew4VdTNeeliK2RncfMPVOHWwhEBg8encTT1urglHg7j51isQT4bdAYTFegLkoxsx3nslFErKVGb15I0iusaeQWpq12x+Bjf9aV9z9s9AGyDUX8M2QFg8P2cMIFAIXZjPs9TPLJxuhaJ8CnXTjeq27DNtfiCXvLxOEQzLkw9huV6R4QDQE1WZ2ZpoqEsqxxJeKTo3y2q4sC8BCRjssMDraXaybgUan3VSvOZaBDIXYuKEBWthXKBPkxRO8Ljpg72IdXFNAgTqCAc10AFDJApu2weAN1UEGHGQvw6cPg27XU0LZ6ANENoAwev2OmMAgdR+5KwowIDAmeX8AbZnOv2sBMBAiDIckpEvNKaFPhNhkiZLmBRDTm9tBIPXTbWU6+mgu6rDQixgh1VSYem0TUA3OPZT1OyEV0SBTP9m2oMYkAoVUSpkoLlNnemxo7MA4dprIU5cgJcfz8NYmACgRp3BsIB122I4tjcLVTGR7JERS0o4eTAPo8xVUHlrokvEnZ9dg85BYQkAweMA25e/pmegDRDaAMHrBj+DAGF+VymMjofB0hxT6BqFlVv58gAAIABJREFUshGAYN7pDET465HuZqJEUYAcDCObLbhufzmBAscL4MQINCuEksaz9NIkMH32g3EzVb5dQ6yJ/QkVlpZj4xBEO70271C6WoBOCa8MGzgQSFBNHrEQB8HItEx7QANcCkC45p19uOymThx4IYOnHxzHOz62mo3v0XtHcHTvYic6rwCBnBJnUhciF10DAxyCahrd409BViYX2eANIYzJrtchFxlcFH3g20K2K2IzQHqakDKNntGfQTzDzpJnM0A40+r/5djOrdB6LrXf9frkNlKimpPibC6GWj4IjTpOXuk2aLDj2x2wQJTAFItPn7e6EAucKnZhIkNaDdJuGJCJC4DTXQOGVvaSGP5C4Qg4XmL2epNO2uyEzaOkcSxbZA3rSKunrun6+xIWApiBptq0yiyUiH4EAgoCRKKmpjwWZZs6y5BJu8HQUCjkWuJ74AxmKQDhXR9fiyve0oWJUwru++YQPvQ/NiE9ruKBb53Cy09OL5ovrwAhG92EE2tvRSaxgeldBFNDz9iLGDx5HyR1rn6TlzHW9wacWnUjNGZ6aJdWzgCtRUAvYsuev0IkP3RGHSYbAQRyiK320qd9vxwOhI1AQKPvW7mO1epuNC9u++vU4zUioVH7fs1HrXG4Hd/ExASOHDkyz6l6lmq5WYCwcHAOix/5K1CypxDfel5+AghFsRdjM2W64VnaYRMib0BkDIMaAw2NAEsrgAIlfQoGQ4zO1lkslmDP4hhlLv1oup1WuqjagMGNw59fG8trPaIIrEoZsJRpqOpis44TUkUvMWLpo/FTAixeFFjUQivDDpvVIPSsDmL9jihGh0q447fWYuK0ioe+fRrv/cw6nDyUx0uPTkEO8jj6Sg75zFySLq8AwU7WdAcy8XWz0y4aJUTTRxHUMrOfFYUAivFNUOU5s5RgltCJMXQHxiFxyiyFstf1W87rKRU3peEeV/owbnXBEs4McZebMUumhh27/hciuSMrHiBUS77UiAvAzRw0usZruGSj+pbj+1oCupmxEA9BNS6Cegmh6PpWA7dmxrJw7gkgHD16dFEUA0vW5BdAcBpl2SAZyZK32GaWTVEWoSjuoyYqAUK1DcdASxk0kFaBsiQSWAiUaYmr3eM3UHAWkLJDSpLI0kqzFLvOCbucKIdeqEQLkC4KGMsuLWdDqx6+ngQQFbNQirmG+Sic8Tnjr/cS86u/zWgQ7vy9Ddh8cQwHd2bx/f9zgvksKEUD4ZiIgfVh3PKRQfAi8Mi/jTCw4JTmAMLtWEi1TGGN9DOrBSEaas7JwGchjmlsDb+MwcQo08xRKW8d+xYL6I914Pw1mxCWiGvDQl4pYdeJQxjNL9Z8VH1OTGBNqhfnrt4IWRCZhiNdyOKloYOYVtyRpQkWcE7PamwZWMsyX9LLcSybxnPHjuHVyRT2ZXegIKb8Wmpf62kDhMbT6YcgatyKv1e0AYK7+VxWgOBkg0wI3rJBUnraeCyI6bR7cptGAGHh9FQ6VjJKYF5HiCsuMkm00k9hDjAITLNgn7BtQEDahemigOGZlceZIArAQMqEoE+jVCq523nLfFUzAOHqt/fhzR/uRz6r469+ey+ufEsvugYD2P9cmjknvu/31uHkqwX88O9PYujAXL50vwBCvSmKWFnsCL2I9V0nwfNVMjlyIt5x0bV443mXIxwgcOCwIVrIlYp4aPdT+MGux6FZtf2DwryEO19/C67YfD4C4lxYKBEZTWXT+P4Lj+LRAztBzIu1SlSQ8WtvfDd2rN4EkZ9LL2xZJoanJ3DvM4/i3pezeGnmYij8ynPYbQOExg9qGyC0NQiNd4nLK0JCEUlh7rTl5jZBlCCGkpicKbLUxjaPf30CFa8AoV4/RN7WLFDbUjlSo3xAa3mAJz18pI4XRBkZJYTJwspTx6aiQDKQh1bKsoyWK7E0AxAEkcfFN3TCMixc+Y4urNpk2/2LeQN7nkzj2L4cxk8UcXx/fp66sNUAgbMM9EvHcXXv0xCExfNNUOCt51+Nt198HWKhcBlgki2aUpXbQCFdyOG+Fx7DA688WXW5iH75g6+/BTdsvwwByQYHlJ+B7nY0QMPT4/iXx3+IF08eqFqHwPH45E134qJ1WyCUwYGjVnXqODQ8hK8/9BD+61AHjmhbKJhzkRaEnnTW6zmMw547GkplpCp9HRU5dEk8tnTI2J/WMJTXF13TK/HImhby5QgUlgNE4BATOJZBM2c44wQkU8f2l76McNvEUPOxbgOENkDw7Z0f4EtIilPgPYhWUsGL0V4cGQcIF1ByH+LxtwU2CW4HMNiggbQBBBCmjR5kfHZ3ILOEQAmHOEqtrLL2ybei1XxvFBY5rXdA8SnRUgN85Xq96SXdnzSZcyL5EqzU0gxAoLEIIoeP/b+bse7c+afb7LSGx747ise/N7oo8qTVAEG2itgqvIgdq8gu7shN2vX2LgwLMj558y+xUzs5iRYKRXztm/dgeiaL3/nE+9HV1cHU/DuPvYqvPfxvKBkUlmpLX6eOjkAMn3nrB7Gul6IlAMr0+JW//hdGMPWJX38fotEw4xh5/NWd+LuffQ8GmUPYlU4NQG8ogc/e+ivoS3axuodOjOCfv/N9JOJRfPTDtyMYlKHpOn788nP4woOHsCt9IcKSjPdtjyEV5KGbwKtjKn4+XMI7N4axoSOAom7gxwfzmDAsfOyCBP7uhRkMFQ1EBQ5XDYTwvgvjiAR4ZEom/vb5aeyaUJkTsA1wbF7Gz1+ewlNDRTxyuoSIyOHa/iCuXBNCb1LC4XEV9+zLojfE484L4ggLJu79q99HZuSArcY7Q8WNk2LbB8H94rRNDO7mallNDNQlli5amGFaALeFvOADsT4cWpC3xRFyJLQZBwOd9BlgUCGJAk4V7BdTKwsBHspuSSGdrTQ/EB3zmNbTyqE0VXcsAHRHFZhqGqrq3kekqcaWcFOzACGekvCJr2xDIMRDU+ikAIgS8Tdw2PXzaXz/m+SbMF/F32qAELAK2C4+h62D5FkPRAIhhKQAFF1FUVOQkCL47Zvfh3P617LvR0Yn8TffvAeiJOBN11+OK6+4kH2+98RhfO3H92BGKyAWCEESJZR0FSVVRVcght952wexuquPXbv7lQN48KEnUCqp+PD734G1a/oZyHjm0Mv45k//ExoMxAJhFq1SUEtQNBUbkn347be8H11x27/gvh8+hmPHTyE9k8UnPn4nUsk4Axk/2fM8vvDD/Xhh5gLE5DA+eH4cMwUDjx0rYEQx0S1zuHV7HO/YEcUTR/LYeVrBK1Mq7roogXt2ZRhCKuoWkmEBd2yPsTDanxzOYzKv46LBEOIBnkGX4ayG7x4u4H9e08Gu/cHeHB4cKmBtTMQHd8QQCwn49p4sXhpV8LYNEdxxXgzHJop48d4/wfiRXS3L/ulmWzcLEJbDGY76f7ZpERpFEbj18mfAs46TYq15WY518WNNpqamcPz48XmHv4GBAaxduxbcL33q65ZucuylaKeAXXqcPoUcEk1zgG9MYOQ8ODxPAKEbR8arZ39YeBpmIZacDmMZchyE+AJiYnYR4PEbLJTMEKa0DjfvkqavIW0A67fLgxI5xPUlTET5zDwv16Y70MIbmwUIosjhkjd1IRgSMfRqDrm0jr51IXT0yjh1sIDDL2eWXYMgWUVsEXbivFWHQf45q1I9OKd3NbKlAvYPH4eu6fjETe/FeaRB4HmkMzn81de/jdWDvbju6kuxft0ge6m9eHQf/vdPvgsdBtZ29mFt1wAmsjM4ODqEAC/hM2/5QFmDwOHU6VF842//HQMDPXjvHW9mwl3TNfxs/4u4+/EfICAHsK6rn2kLjk8M49jEMEgL8f+84yPoT9lA/bmde/DQw0+iv68H777tTYhGwiiqCh7Y9Qy+9PAQdqUvQEwK4NcvS2JDh4Qf7s3i6LSGvRkNq8IiPnttB/74kQkMlUysion45KVJnJjWYHDAo4cL2NEr46p1YRydJI0I8L3DeRxJzz+IyAKHT1+cwJ5RBZTB+rnTJcgij3dvjaInKuI7e7M4Mq3hzh1xDEQFZAoqAoe+i2d+cl/V6JwWbtl5VbsBCLWEml/e8o2Id7wIVT95A2oJwnpt+Nk+LVQzc9zMPdX2mx98B069C+uiPDKkGa6M0ggEAgiFQuA+90d/aak6j5IOKIbNfqfpFIbHzcbue2WrJXU8RTGEefcOh6RBCMU6cWjMdtCrRZPsl9rcy0MfEfKICRlGEFV18epU5lIOU7wFsox1Meala56uJWGfCBJND6AS66FpR04YdUAhUSR3RxSIRgaqqnpqb7kvbhYgNNPPVmsQeEvHKvEYLut5HrK0WGtDqv63XXA13nLh1UiEo7Y54aX9UDQNr7vkXEZgNZPL4Ps7f4YfvfJ0hVFgbrQCeLz/9Tfjum2XIiQHGEfF8y/uRUCWcP55mxnwICfD/3zhETxxaHfVaZJ5Eb963bvwuk3nQhYpCknFsy+8gmQihh3bNrF2D40M4Vs/fxz37ovgcGkLQoKAi3oCkDigIyxgqmDgmTEFb14fRrZo4pFTthkrGeBx87owMoqJp08VoZpAp8xjfUpCXjWRU0wMlwyktTmTB90ncMANg0Ecm9FwKGf7b5DfwoVdMsuk+eKogqJpYX1UxGUDAcREEye//8fID+8HOVaeqdIIIPiVrKmekPdTLV9PqHqdY9qL1fpdT0vQqA2/AUSj9hp9X29daqV7blaD4Hbs3O9/4f+3WMcqYqcYAx5x7Gs2vz6R+5AgIdBAmlb6vl7hOYNxIUR5dyFSVBdtgFC0A4cnA4tOa9WSLy0nUCDzgtewzVm01mhXlL8n/4NJvQtaDY2IW6BRrzkS9gNxDRHZYGtY0jm2vs46kx2X1trRItGW6IxY6AjmUchnG4Y2uhxqyy5rBiCQ9iDWIYPjbVRaKhgo5nTml0DPRTQpoaNPxvSoiqnROY1YqwECE2pcGjvCL2F18jQkYbG5LiTIuPWSG3Dh2nMQC0VZBAHtE8PUmYPii8f2474XH4Ni1jb1pQJR3HbZjdg6sA7RUAQ8mwiizdYxlUvj6YO78fDeZ+vWsSrRzfqxoWcAkUCYvUtoLTRDw2h6Cg+/shv/+vw0dme3o8AnWrb+zVZ8tkQxtAHCYrnTBgj2e8prcQ0QPvXZL1m8wINU/NQQQ2o8NWq/KKiQMCGKYM20BQppGdhnxL/PTqE28Y9TSP1PXAh06nZbqN1AJIkT6RBqUfWfCa0CuYXFxTRIi9DKolkixtXemk34ARA6YxZSAQrrNMHxtOZza0zrSmtJZE0EEmiNyRs+HtQhm5kVG9pYOWHNAIRQVMS21yUwsCGMkaNFjAwVMXaiiP51YUgBHuu2R7FmawQ/+49RHN49Z2pYDoBA/AhJbhIbI6+iJzyOoKhA4I15EQAyJ2D74Hr0Jbogl8MUyTdgeGYc+4aP1Q1xdOYuyEvYMbgevckuiET6QFEcWgmnpsZwYHQIuotTdUwOYcfABnTFUmxfGYaJrKLi1eEZPH3CwOH8Bkyjm2nKVlppA4S5FWlrEM7c7lyRGoSPf+oPmOxxwAEj8SkLDwINNlNUGTBU0OeSMCHQoJRV1WSWoM9IuBBwCHAFxIUZ168DakcOJ3AqE4bqwrdxubQKpA2JCxmEBffmkma2WNEMYlrrbOZWV/cIPNAfVyGZWRimYa+rIDL79tx624CB/BNIg8SO1YaCYiELqwrFox+gxVXnXV7UDEDoWxvClksSuOgNnXjhx5OYGlGYz8HAxgiiCRFbL4ujmDPw4D+egkY67nLxDhC24fh6IkqaY1J0MywCCSHk0SmOIypnIPAaiw5adGgoe++zZ3n2f25aqLiG6ijHGzZbh4MlKN6B/IMyahxTeg9KfLTlUUAeRzt7eRsgtAFCs3vHz/tWNEBYOFDHtsG0C5wAjmkZ7B+Kd2bfV5xAHY2CZtAJlEIVVYhmFjr9w0VhACEYw0ghiqIHU3dNrQKTdC4abnAJ+VOQiaHV1NFpPYG80ToSmUjAQlLOgdPnsyDaQKEMBOk3RzTJtkaJpJCiUAbG6qGNPkzv7Oz7UVczAIGolvvXh3Htbb148r5xFLI6Xn1hBqLE45wL49h2eRJ7np7B/udm5pm+vAKEXHQTjq+7HTOpc5relMSNQDZyxlPQdC3LcyNBKY4TYFVoIpenZe+tBNQstr/yFYRXeC6GeiaGZtTM1WaqWQ1CLf8A76tR+w6veSj8bJuJE7ee3eWG/VoTqq4ZHwSvDq3V5otzNAhuJpPMDmR+YKdOjgRLGTBUaB1mI7YtA0qpgIJLaU+DkUMxTKkxZJo8rFfTKjjjatZnQeQpIiODIN869kCy+Y9rPTCs1lAs02mzO0Yn0RloSh0eAyfxEgOCBBDAHNfMZSBG8gsg5DJTeLPHdM+BII83vG8Ap48WQdwHx/fnsHpTGBvPj2PsZBH7n09DLS0tzFGX4phOXYB8dDVMjgf9eya5GZq0GBRSIqdE+giCheFyvkE3T2f7muZmgEOwNIGusSchnaXZHGs58NWbj3oheF4975tpv1bfaglCut4Pgddoj9SLlqjXt2r1ep0XB5xVm3+va+JYBBqNt9H3ngDCwspmtQxlD1NbVS2wXAPEgqgqChSXcfNUlxSMgk7SM/mliYtaWgXqf0iyEBZNZg4h84ii1T+LEacD+SAQaVKrim4JGFPtWPRWFFkEOsMlSGaahce9Vgs9RNkmAAJzxuwPMp8DtWhgZkJFoktGICRg4lRpnmnBmTuvGgRCWyYfgMGSFnEwxDDGeq/GcN9V0KW5rI28qaNj8hWsOvlDyAqxkS7tWXitrrWf4+JNBYJBDqhndq6bjWLwKoicE2ktoeNVGDXTfjMAwc81r1VXrRTJNCdeAUI1Uqt6Y6jXhtc1WREAodpgHdMD41uziHTG3UPHAEIgjLyVwkTW3T1uNsxCrUJ3REcyZJs9KLyPCFdKuu2Yx7z6NX6eKjnIF5mJwQvpk5t+VV6jWkFMqK3zPyDzQlzKMvOCawIEr4NYAdc3CxCa6bp3gLC4FU3uwGTnxdDkRJmfEOANBamplxAunDrjAquZeWnf0/wMtAFCbVV687Pq7c42QJg/X0vSIHib+vpXE0AQpSAUoQOj3vI8eerGQLyEWNCc58HvhHBSmB8L8XTC/3QegllEhKvNgeCp8RoXR2Mx5PUQixDJqzxzEDTISdCnEpE0xMQMeLN1ZhLdEpE3IoySmuipBRg1eSPI6dVWp/k0wHI1ZxtAYCBVCLHsjcRrYPsHUkKs1kbM+Dvr7dr8moE2QGgDhFpaiteMBmEpD4soBaBLXRieWUotte+l8MtOaRpBQZ01hYiiwLz5yVHPKYzP3bJDN3WlCFUpeHZQcTsCRl6U6phtzyao4qAzfgIOBZ1HUVsaYJB4AyGhBBElRlFdi/DJbZ+rXTepd0I1Aiy9Ng+TtUE5LIhVUybAwBll73sO4ZDM0nrrhMx8LCsdIJi8BJOby5jo49BXXFW8ZbQUkK64AfvQoTZAaAOENkCo8yAJUgCm3IXT7tLYe34kSXh1iJMsARQVx+nFJoriGce8KFFWRdHmhQBQKhZRKrUuQRExu4UCZP+WbQ6Kstc3na5tSmQbqJBWoahSghqB+U14OXzbIWsUgW7/kNCmVNdBrrQo1bXnSSVSHcbh0LMoxp21V26XAILIqYzJMRm2kC+UoJN9x8eykgGCGujB6YE3YDK1DQShXtvFQrQ0ho2Hvw1JmXxtD9XH0bUBQhsgtAFCPYAgSuBDPRhq0TuF1N9JcZqdomuVStBAIIH8KFqf3ph4JuweMQdPUWS0tZQCuzKUlEDD6bTEQMJS1fNzEMOCwNtmAZZmGwbLoumlTOhdTHvQqIgCsLrDhGBmUSwUqnIrNKqj3vcOQLj+dZfj4NMWnn3mhZZR53b3JfCHX/llrNnQjb1794L4zBnzYjSKVCqFu+66C4XCXDhOJr4Nx9bdjmyCkiv5Zz5ayny17l4LQSWDcw78I+Iz1SmaW9f22VtzPYAgyzLbW9VKM06CzUQLVB6qKvtBz51fIX1e61oKk2K1uawXxdCMU2ctn4ZqbTcaS6059mvuq86HlzDHVj96JBCFMCWCac0Jyw1AaPUYvdZPgEEksCBJLBPfqXSAAYRWFiKHokRbLGsmr9R10KylPajWv94EkAopKOQomsIbCHEzXnrAqO633nQVHnrooZaZhagvyWQSv/Zrv4be3l6XAGFrmShpvZuh+HYNryuw1BzAOAn8ASYc+Y8QB4oUBsrMiws7LKtpbN3/LcTSL/s2ltd6Rc0CBD8FRC0B2QiYe+UIqFWfF4FKdTie/17ab2aMjcZfC2z4tWe9zgu16zXq4iwACCLEUBeGpmwByNToFQxxS51sUq0nxRlmG29VcahkvRkB3PXGsATM6CkoZuPTOskCCukMSiYKKjlellkSPWRydHpFERzkR0CaFwIMZC5wyqTWCdVFfyQRGExZ4PUZlCpO1u5G7u4qekkUCxn86ofugKmp8/KLuKvB/VWSJGHz1m2g3+40CNUBgljOrkkOsm5KOWVEQxOTDQUskC8AS8/F2c8UZfNkL4867blpgytNwxJDgBic7TYlSWL+O5TyvQ0Q3CznvGvaAMHOyeOltAFC7dk6YwCBhTB6WUWX19JpOZFIMo4CctArkqOebmeYJFrnSpu8yyrnXUaq9IQwM2ti8FuIkwBPGwlInM5ACAlS8uZn7+ey/b+Zfjv3lMwAMnoCumVnvKxXSJ3fFdPREbJ5D1gYp2bPZ4EiJXQ7rTfzcfAIGmzAQJoFAzk9Si6JdftiEzWR9qCEUj7D1PGtKPSyyGWmcf0lm3Hy4e9BFqWqWQz9aDvW2YV3furzSA6s8gwQgiKHkMhB4jhc2i3j5IyOIwUdosBhRpnvuCnxHCKSTV9OIcNrogKIsymtEfCzoJrzMxnS2ChzYX9YQFEzsTbC4fkJDSp4BEQO58TsORnKGSgaJoIij4JmQuY5KKbFMixujEnIahZOFXS2N+h5JyBD68gifSyAK6VhiUGQ31AySEycwPaYiFdndIyVDIhtgOB5m7UBQhsg1No0XoETOwRUocf3uik9hzmKIs9CssjBzG+QQBS/kUgMXDmiYFZ1RtEE5KRHwq2cYZIBBss+sZDnvxu6BXKYI8FNJ2EScqRRIF57cuAjz/ulAgY62ZM93ilUp92Ozuz6EqcxwOA47nkFDRkjzuiYSag3KrGghcGkCsvUbVpsuoF+l9XMNH9Oxk4CYrkS3zBLZ6M2a29uoDduIGTNtCzpE4EUy7SQz07indecjyumDwIHXwJMfx0hnTFyqV4kf/W/w+zxDhAu6w3gilUhrE2IWN8l4x+JxtmwcOnqEL74xBQDD5oJpII8zu2WcVlfEE+fLGG6aODDF8cREDhM5g18b18OJwsGS5lBK2wQUZRi4uY1Idy8LYafH84iFeRw7748MgaHG9eEcNuOGHtufnowj50jJdy4IYL/OJDDJd0B7BxXEBGBL76pBztPlHDPvixGCmRusnBxp4CusIhdExoOZkxYZYDQHwnhD9/YhZ6oyMDGSyeK+PJTU8jnZ9omBo8PTBsgtAHCWQ8QwiEKZeOQJwplF1nevDwjVC+zuUt2FAGLJGCe/XbEQWWGSZPxFRDJkcAIjhh3AGWVpHTUZdDQyJGPBDXz6KcTMTTwvG4LcOZnbs4KcjdjINMCJVya0TuqXs5i3BkQMSATWIDd7mz4Xzk0sBZI4XgBOTOBghG0T3HllNvVKKTpNJcM6UiIaaiKyuaU/bCQTsqjYedWr7TFDWclTOda49tA/YlLBYS4LGDZ8+tnobnPGRG29mpuDO+5bgsuH96J0o/vhuWBU4ATJAR3XA6aa8vQoI+ehDY2VLWrQu9W9HzxbmDNZs8aBKowInJ4z9YoBuMivvpCGtf0BHDl2jD+eU8GgyEBr05ruGVjBK9bF8LeSRVfe2YaW5IS3rE1CtOwcDJr4KmTRWzpDKAnYkfcFHULTxwv4PeutcNmozLw2OEcvrMvh76ojHdtieCqDWEERB4vDhXxowM5vHV7DP91II/zUhLCEo+792bw5Td2Y89pBVnNxOMnijB5C5+5MoGLVoXx1Sen8d19eahFW4MwEAnhv9/Yhc09AYxldHTFRHz0nlMYzU63AYLHTd4GCG2AcNYDhGg0DJMPYiKtg7fIc5vObuUfFtLmX2y7QxfJPPudH0e4OfTOFY5XBBIoqyQzS5T/Js0CCVN3oMFiAtvRLtiOenZIZOPCQeUiyBvxWQFeqdWoJRIdMwRpFyj0kNq2tRkmBErLzIAKEAoFwYlhFHXRZnwsZ89kYyP1c4UWhaiVeyIlQJleFCnA5pTAAiXdKvM/kPrqZDaEnCKQMsX3Qv2f1dzwGouUIJ4EAktL5WSg7pbMEKY1EooW9NxpfOTG1U0BBCHSiY3/dRRcKAojPYXpb/8FJv/lS74DhBDP4XW9Mq5aF8G/78viUFrDG/qDeNPmCEYyOnZPqHj+dAmDYREbUiJSMQl3v5JhIOC2LVFYmomHh4rI6IsXq1Pm8ZkrU9hzuoTOqIDv789gqGCiLyLh+lUhXDAYhGZY2D9ut/H2LVHGrvmf+7K48Zwofn4oj49cksTRSRXPnC5hKG9gqmRgY0JAd4DD7gkdOXPOxNAbCuHXL0+iNyoy/wZZ4PCpB8ZQKrY1CF4fpEZhjrFYrGqVryUnxWbG0owqvZl2aq2nVxIjr/uCrj9rTAyBQAByJIUj4wKjKSaPd4oOIHs0vfjpbwINAgMNtgDw88RoZ5QkwEBZJXlmjqAMhA7FM2+rG9gakOCk7JJkb6dMvUSjTEyFzum73kKRYA4LeZaoyU2h9sPRGDQrwOz9JMDpt5PlkvwqSIi702rY5g8ROpvfgGgiFhIgS5KdgpnGR9wITIvCz7Zla1EASbTQFcijVMg27Dp5tvO8iBGlm/l++F1cCCzaAAAgAElEQVQWAQ4OTEtDSbBofASKbJBE2hubYMlLUSwZGT0JzZR8AQgb7tlPsabQJ0aQeeCfMPntP/EdIKQkDuf3BHBsRsfJgs4A5fqIiMtWB/HKiIK9M7aPBvkDrI+JCMo8Aw1UtnfIzBfhSEZn/gcLS5fE46L+AASOw+FpBQdnFLZnwqKAcztlrE5KODCh4uCMhpJp4dwOCapu4XDW7seGsID+uMSEfTTA4+iMhv3l/lS25fgghOUgLugNoKSa6IuJzM/hvw7l206KXjZx+dpGAGE5sjk24+HfKDyviak4a25pFD3hFxA5awACneaTHd04MCageh4m+xTOTuL00i//TYLO0TTQydgvN0cScAJllmRpi+1U1OQxReCBxQfzc6YJEqbEI0DMhI0KgZwon0NUaCxkqS7aCHFC+II4a+cnlbdm2kCBaTQMnoEqsv/T547jZV2gwlmIB3Qk5IKtsSmnZmbgyEm7XeFXQG2ZZPpR3TsDFsww0nrKZ8W/+xW2ASaZXQg4kAbF2T9z/hrV5oh2VFpPomQGAQa+LGj50/jlG5rUIIQ7se5vn4KRS0M5uh/KsVcw9a//n+8AodHe8+97srWVfTBqhCM20xZ7eso+CBCrR9SwKIZ9/4BY5pVmmviFvGcpAMGvCXO0tl7qayaRkZf6678fG7/La93fSLj71Uc/6vEz8ZOX/nh2UqTKu7q7cWxKRtYlweCcOplOiqQ6tzUN9DmdJgkwkFDwrRBoYICB/BjKQIGjFgIYyQWYN3+jQoCGwEGEd8+LL0kyAykkuG0BTqdzmx2RHjzSHpBGYQ4w2H+Th7pq8MyGvvAUTz1NhTREeOIOKDNAOgCI+RPYfht0SnRAkWHoyGXdARsyCk3qXdBM/ymAm7VWOL4ZcwDT0TLMaaSo7pwRQ9aIzTI4OiaGZgCCPLAFQrQDPb/5J7CUErSxU1BPH0b2p/8OfWoYpjJ/Ppfqg9Bo//n2vakDejnk00ceBPI/sggc1ONBaAMET8vYBgiepotdvJQTehsgNJ7vpgBCIpnEVCmCcfI5a1IKzGkUCCBYTJVu299tc4UNKrypm2sNd1ZtJsUwUQxDKXMC1Jse6ktUzCDEuURBlZWR2p5pNTjmZOmAlIWAhW4hQGCbQsrmiLK2gTQO9EP+6XEphxCyNcNWHPMKAyUcZaM0XYcSKlYA01rnIprkxltnea5gDqPl/WCDSRssELChiA4KLXUK0yDkmtMg9H36GxAH1kLqGYQ+dAhcJA4uGELpwC6k7/8HlA4+O2/AZw1AIG0SgQT67RNAoIee40VYdbQSAXUGW/f9PaKZvZ43Cjm1kkPvL1Ihp9KJiUmcOnV6lv2TTKkDA33o7u5ENCJhcCDCDh2tLBSwTO8swwCmZgToLrLDtzUIrVwRu+6zSoMQjkSg8QmcmGpsU/cydfTit53z7MQ+tpbBBg62cFiaB7wlJTCtRJjNvlEhp7q4kGYEQX4UR3VnR2WQhsOO0KDQTnIWdCiVZ7UMZIIwy/Or52Gq7jUZbvtLEMwmXpoju3F775m6zs7vYANHswIc0L/pRaU2CRA23P0ypA07YEyOYuzPP43QpTcieduvQj30Csa//jnknrnfV4DAWybi2SEES2PgCNBJCUyktlYV4pxpIFIcRTR/Cpzlo6atZYtoQVLS6Bt+BJI65akVwjCRiJ0z5BercBgZmcSx48OzBwFKJLd6dS8G+juxeZOK975rGrLsz/uo1tza4dCAooRw/0PnYM/+xprFNkBo/U5dEQDBVoM3fjCJFzwU68SBEd4V/0Cz0+cIAyc7IP12zBMOaKDfbospJTGthJnTYqNCGgyKYBB51XamK59c/XpxMdUY0zTYZgjbb8IOR5z1peAobNNEqViAqriNpmg0srnvVUvCtNbVkOjIfY1n9sqlAoTCrmcQe+NtyD3yn5BWbYS8eiOKu59G+oFv+Q4QJL2IDYfvQSxzkIFikw9hpP96nOq/Zh5IIHAQyxzB4OlHEMkfP2sEJ2dqkFTK2974fVK5a8halojbANAN38eZ3XH+tj48PIkjR+cDhLVrejEw2IWLztfxiV/PIRhsLUAUeBUR+Rh0Q8RjT1yIv/7bwYaDpHeUG7mxsKKlmAfc1NVMnxoOtsUX1Oqz13wbzYK2hWsya2KgL2RZgGFYDbPsUWc7u3uwb5ic7uzAxuXSCM6BBvuU0SWNuV4yQ0phhgEEd7fMZSNkNDy2z0TZoU4m0iMnJNElsGrUaiU3gWOaoHuIedDygRVrYfvk4Fc0wyvWvNBovhZ+v1SAMPY3X0TPJ7+EmX//JuTB9QiedzmKL/wM+Z0/8R0gBLUsNu/7OmLpg2UhykGTOzDadx1y8Y3gGVC3ICvT6Jh4FtHMAfBma0+PXue7Fdc7AIHAQVGTYZjeqHdb0ad6dTY+asy/ux5cGh8bx8mhIUb4RYVMkgOrBtHT14uO1X3Y8sbLIFAMcwtLTC7gY5f/PZKhVzF0agC//fuXNmytFkCoBwCaAQdePflrRVc0E6nRcBI8XFAv6qNeyKSXOasFELyuySxAIPt1LBqEoukoEglSg9Ld3Y3DkzIKCw62ywkWqIv98qlGXWXf08QoQgppJcQiCZotlaCB/ib6ZpnXEeXchUN6addZzFYgYUqyNK13slTNr5WyVIAw+pXPoeujv49Tn78DwXOvQ9cHPo3CCz9D4eXHfAcIIS2Lc+YBBHsVDDECXQjN5nvkLB2ingNHfgS/AMUBCIbFIVOIQFtgRloJU0CQJSBxjHBK8IhfCPfppBXULGjGfP3K1NgIRk4dmzUxkDaxp38NOnsHUOzYguFtd0IXGudhWcoc9QeKuP+X/gDrOh/C6Hgn7vrU6xtW1wwPgBdh57y/vd7zWgIIDRehygVe16Xa/M4CBEJnsXgcRV3GeIbU6jY1sEPcs7D9eCKBoXSkZkTALFL2pmH0PA/LDRAWd9BCSFSR5Cc8993vG0jP4daxk7gDKLzRSS7ld1/ORH1LAQhizypGjiTEktAnh8HJIQixFCylCEstwVTmUjfT2JbqpFgLIJyJeVtJbToAQbd4GyCYrWH3bHbM5CMYCXAIChxMTQHPIpfc99HUdVtDIAjIKyZK5D9a7sz0+AiGTx2d1RaSb1I3AYSeAWRS23Bk8weg8v74C8UEDm9aH8bFAyHIkm1a/u7uDMZyGTz8oc9hY9eDbYDQ7CZpcF8zGoRmuuIrQCD0EAqHASmJo+NzUp2dkkmtzlMeAUpCpLFcBlIghNP5JCP/aVScrIyNrmvme7cAgQBQzkohqwVZOKGfJSIVEee8OWP52T7VRZqASb0bAvEJEHU0rVE558TCtsjzn7QHmoukT373s5X1LQUgVPaLDyURPu96WGoe+ZceqtrlpQIEWctiy76vIz5rYmjlzJw9dS8ECIZJfjnkp0NRPhZ0l2kvGXunwEMzyD5uj59O++TzY+dwoZRVHESKNCpPj2ZaoFTW9C6kvBZOoXtE3o7YCskcgpJ9D+03x5dI13XmP9TwlOvUyxHrq8lyZ5AmgQoBhNHTtgaB6iaA0L9qDXr7VmE8tgWHz7EBwqW9AXRIHJ4dVTCjWbh+IIjpvI69GR1auds7ogI2dQfxvaN5lojrwk4Zlw8GWVItjrGuWiiodvurEiKeOFnCe86P4zsvDuPbd/xeGyC08JE5KwECzQc5HwZiXTgxSZn/6s+QwJtN2Qf9BgtuAQI9vFkziawa9N2xMiVMISg0EQ7p4yakRFFTFYminKrJqVPibbBA4I5+KLQxqyfmhQj62JUzVlU1gCCmuhC98p3Mp4BK6eDLyD13P4z06KJ+xl//HnR++DOYuufriF11Cwp7nsH0974Gy5izo/FyDMm3fRRcJIXgTe+F2dnXVC4GwdCx5vgPEM8eYlEMgppBUBmpMXcci3JQA102k+YKLyR6BT2PUPG0554uBAiAWD7hAopuMcFGGS6FcrifplvQLQsBgcKJ7eRtJHhJgkdk3lbll236BAboPkkgsjKL8Y/Qv0nYk9AngUlJsmIhDvmSxbJr0nX0PTFEEkU1XReS56+BpulMqMuyBMMwGNMr/aZCn9sggiJNSegLoOgEKoQV0kWDjYtKbnoEp0+Qg6DJ1AqkmegbXIM1q1ZhJLIVhza9H+f3J/CRCxOQRWJRtfD3uzO4fCCAoXEVD50qoWSQrxRwz+39UHQTe4dV7B0pQZR4vPfCBJs/qn48a+BUWsO2vgAuXRvCQ3uzmMobeOn0JP7yls9gQ1uD4Hnvur3hLAMIf1jO4A6IoohApAOn0lJDgOB2Mupd54e/gheAMKWlUND9t+H1yMOMAMrv4qj/7RNObVsNvYAm9Q6oZrAhLwXFl79WvcNraRD4SCeSN30IRmYC6Z9+B8H1FyC87QpwwTCbWaNYQOaRf0XfJ/8C2vgwsk88gO6P/jdM//s3YJayiF93q/0Cf/J+5F98CNLAOYjf8hGEbr4TeijaFEBYuFd4vYBtB/4JiakXGWBwisXxyEc3YGjNOzGd2uIfl4Hfm3VBfcHiGHbs+RqCRXc+Qs7tlQAhW4gAnMiEIZ3iSZDqpsXyPZBgJ2FHn5FmgfwBSAiT8M+V7PwlRBVt2/yBEkn+cupqUqkzqnLdQkDiQfKahCbRRbOkakRzLXKsnYJiMu0FaQ7oS6pforYWlFJJgSSJUBSNHbRKpRLjLCBQYPOU2E8xhTUTZTqLGAOQKRgoLQAIBCpIy0kAoX/VWqxZNYhMYhsObPgASnwA79oSZc7klEHzqdMlXN4fwOlJDYemNVy1LoRvvpzBX7yhG6+cLuGVUQXHczquWRvCnRcmMJLWGcCh+Tk0rmDHYBAXDgbxs4N5HJvQsHt4Cn/5ls9gQ+cDLTMxNNSyVNmbzTgWtn0QqsuMWvNf1QfhQ7/9ZxY7ZYKy/vGAFMNILtTi18f86pcCFFwDBEnClJpEQWsc1+tl8CRwu8XRcuZHW5D7EQqpWjJjCqTICcdUQCYeniXEmt9OKhlBXguzVNglzU5UVT6EMDBAL8kWu4J4mbKWXVsNIIDMY6lBxK+9A0ZuCtknvgch2Q959RYIwRCTBmY+j9zzP4AQ60b06tsR3nYhjGIaY//7v4EPxxC76jbwoRDSD34LZinDgEVgy+uR+q0/g9W72heAQJMi6ho2HPpXhArHyiCBQynYi9GBGzCT2nxW+YvIagZbX/0WYjO7Pa33Qg2CBRGSYJ/eCRxQIbBAzvz0Ge1zJniZEOeZFoByVbAEZ5KtCSUgwYS+wLO6SNNAmgc6YVONJPzpwK8a5HTMsbTVpAUhwEDVEx6g+0iQU53RAJkS5oZFzxcBBNIgqKo62z6FKxNAsK0KNvQgEEE/VKifpEFQyyaGmYkRjJ46xnwQmJuCKGLV6jVIdg2gd8MFCLzul5G3ZJzTIWM4q2NtSsIPjuSxJSVjW6eMDd0y/vm5GTw9puCv39qD/SMl1uaRSY2YyHHj5gheHVaYBiYS5HFkUoWhA5u6ZXz3YI5pJu7dOYxv3z5nYvjYp6/ytH4LL64HBrw6X3sFCfVO6l7rWtIkLLi5WQ1CM8CqWr9r1VNtPbh3/eY3yrLDzqFAN+tn0DHIqwnCLUCgVL7TWpI5YfpdSIjbaaPJP6Mi/JGR+tiAwQtoYKmjjTDSRnJeV+3EWIZtKiAnUl5DQLTQmYxANXkbOJRtrETdTHwPlPnRAQ227dWOL6+S58fvaVmW+pgtuNzSIoDw8L8gsGoTolfcDFp/elmaxTyyT/0A6qn987UyHI+uOz+P4NaLUHjuEcz8+G5wkoTIhW9E+KJrSL2G/LM/QenQbkRffwuCF18P6bwroMkh3wCCPQwLnF4CaQ5Yod889f3sKs3mYlgIEOhdRO8kEvKVhfkS0H/lj+nfC69hp3QXvC5uZtapizQIZLqQpfLzRv4/us5Cw0lzQNqGhYX6xXwUGM+Jva7UL3JSLGpkNrHvIB8EimIggMDMNIKI3oE1SHUPQO/ejvSOD0HhAiCFQ0fIDkk/ljegmBY6RR5Z02RJ6aikRB7TpDpZUNbFRKwKCxjJ6bh0VQibOiQomoVYWMBPDuYxNDODhz4456ToBiA0I2xrCUmv6+WX0HSzB7z2zU2dbq9pZpx+hIVWAAS3XV2e69xGQbgFCLwYwLSaQEFv/cuW0QNT6mbYwtwmWdIZSGCpnBuBBo6HYkWRMaJlh6rajJWrkhpEY6ac/0FgyZycB7bywaUcEMQgSYCBUmIT3TT5e9Hn9IJyk2lyeVbefSuMdS9gsZOYyZgnLRQzw/jw9c0la+LkGCwtb9MS29IZHCfMUt8yGms6U5LPQO9W9HzxbmDNZp8Bgvvxr+Qr/QIIC6MYKgFhtfE73zd2nW5+9ggkkNZBZKyo3uph7BbE+KkTOCAtgn0/fW4DhKMVYY7ibJhjNrUVJzZ/AJrPYY4DQR5xicdw0WDpw/sDJTz0wc9jQ9ePmImhDRDm1rcNELzt9WW7uh5YcAsQIAQwoyVQXAaAUPXFVU5MRWDBAQwOpTRRTTnAgUwIlPRJDMZQ1AU7C6RuZ37ULdt0QMKQhDqpStelFBSzFSGW5eRNZL8khyg7aRTP1LIOzTO5ZdGcUv6Hks4zx6ySRicS215LQOJs8FNIhIHBBMWJ6azP9MKdnhjDu65ci8uHd6L047th6f5TVNP6tgFC/cffT4BAzwQ5RTuymPYm8SRUi6ASCXzzBMRba1SzDwEEIAlGum+LriRQwEx/FVNIGoOJsVGcPjE0l4uBfBAGVqG7rx9y31pEr7gJnNjaA05KLuJPb/4L9MSex+mRHnz8dy9v+J5vaxAaTtGSL2hrEFxO4UKw0CsPu4r958QgplXieWjtA+ZyGOwyJ2EVhZCStsGOODCYuo/smQ69ppOfQTHskz+ZDggo0AsqJsxAK9WPoLBzPpRpnJ0sl2XHKSfTJFPjmmB+DCdnRJgrnMEuEgRWpyxYRgGmYXuK0096agw3XrSxDRC8bMQWXOsXQCBYEBQ1yCIlcrOffgIHqi5B0SVb81V2LCQQEZJUiDwle3MvtFsw/CaqtDA8MoFjx04zjRgVURCwZk0fBga6sXW7gPd/OIBAwH9n6MrOBsUS1nXsBM/l8eLuHfijL29oOJY2QGg4RUu+oA0QmphCeozIQdBNPgZODJUBwvIzB9Ipg3wFRN5mT6MXnGFUP3cEJR19ERJ6CrNZzqWrnssMadtDbU1CNj01e+JwO4V0PwMfZeAw2wbPQzd5HJsOr2gNAvl4re6wEOQVZNIz5ZhxgWXQzKQncfPl21YmQFh3OzIJO9zytV4CarqczXGPp6HOj2IIg+ctRINFlhK+shA/QkmT2X4lnx16mgKijoConpWZIOldNnx6anEuhrW9GBzsxMUXFPDp3zyFYNCHnCyWBZMcI6scAmgu6b0yMhbBfT/ciseeijRcvzZAaDhFS76gDRCanMIu1wAhgmnVVtsvd6Ewqq6ojrBkQCtnaZw1G5jkoU0qU9sfICIbSImT0DWbiGLWn6CcNpolcypnhCSUUCgUfHHEYg4t5KCKAEaLqeWeItftUTd74kBHWEc+OzMviRXZCLOZKbzz6gtw/okXMPzgP8PSyZPb/yL3nYOtX/onSGvd+SBQNMJ4z1XIxwkgeDRc+9/9Ftdo55AYHLofAWUx30S9xhcCBEk0EAkUmZGegDUJMDs9PDn3kZmBGIxIz++YISwbgLsgcGvZJHhRXpS3Au3d0ZFJHD86PAv46VlfvaYX/QPd2LjNwq0fNCAHl65B0BUDuZMc1OnF70Lmy6PzOHI8hr2vBpAvNN6rXgHCmfbib3bdvfogNCPUm+1btft8cVL82Ge/ZlFaYcpPQL9JgJGg8sn518/xVq3LLUCAaAOE0hkACCHZRFdYYQDBScLkmA3I5u/MOWkVyJnRKk3WnTfngWQOTz7SQtLLN2MkUDAanxpavrA1GgjKwGDSALQsisXivPHTA5zLTOPGSzZj+P5v48Sel4AWpUdODqzFR//mX9CzaasrJ0WKStClJHQ5/gsAEADeKCFQJHDgTaAtBgg6IoES02iRiY1AgcBR6KHJmBErxRc9D/QMsefJi5D2aTPbEVgUWeGucUeAOL9HRydw6jiZGOw5IxPDwOo+9PR3o2tjAOe+Mw6B+BiWWJSMjrFnDWSPLOZzsN8pHBSV5nKJDdW53e0cVVbhVeA200azI67WlitmzYoG6wGnZvvl9b6F4+A+90d/aREgoAeKHj4bLNg/RZ3YxWyykZVa3AIES4xhRouykL/lLjFZRVzKgWc8BmVnQZ4IWoRZwEBojxZHUVQU87nl7iLTVPCCjHE1BeUMgCi3A44ELSSlLKDlZ1+kzr00f4VcGu9++w04vmc3i0lvVYnGYrjljvcinupwBRBa1Y/XWr21AAK9m8gRlTQDJCJJk0SahEpxSWLVicpZ7nlhfAek5mjiXekA/tHRSZweOjUvWdPg6n5093chtSGILW9L+gIQShkdI0/oyB5aOthoNM9+CumVChBqjZGIB72U5QQIbteF+8zn/9RyPN7ZRmWCiobFIaOIGM8Ks1zhXga7XNfKXAkyrzKHP6Hs6Ee/F1r4VT6OrB5l6nyvXAtLGQuFRcekPCJcZp6vwKwfQNm5jt54BBIomQuld17uIoo8IpEYigbZde2XMUVQ0I9OURRma14mokD8G3bkhJtCp8YAX4QExc4RAgohtY86tOmL+QzueOcbsWvXLtcnOTftLrwmFovh1ltvRSqVcgUQdCmGmeR5yEXXwPIaG9dMB/24hz0oJiKF0+iceAGCMT9hlR9NLKzDDUBw7lm4Y5qQzb4MwSZDWtw6fWRzkzRuht4HY2NTbYBQZ6raAKHxPnJ7hWuA8Ju/8wWr0oZEcfQiMY6JMgw+iJGsiHxrzLhux9LwOiIqcsiIWMggR2GDtuCgxEXEQFhCDAUjtCg0aiksjg07xljYLMTELILINrzceQDcLl7DCj1cQPzwkWiM0bvaoViOVsn+m4ACaZNyCs+0S34UkpOrOixGMMWobnVigrQjNQjI1bKesBAztua0zkRGRWyTpJ0pgSuO46ZrLoCZO41wKNwyauJAKIJLr7kZoUjcFUDIRTfixJpbkU6SV7g/8+fHGjSqg07F8cwxrD/6XYTzRxpdvuTvvQCEJTfmQwVEmWFVUGPbQNUGq442gXEnVSFQWtj8+Ng0Tp9oaxBqLUsbIPiwYctVuJUxs+meK5umhRAlCXIohqkiZQrzr2PLVRMDDBWERIxpgBya6pRWgIWQZCAmZpbl9LWUua3UaBDF62xYZNkpkt53OZXHeFb0zUzTFbPQm6BQRdsUQNFdlcRNFM5JwITMQkXNNnvVfHnAQiSgI2EN48qLNiKFMQwf3gmLuWt7L7wgQpJDUJVC1TrCsU5c/55PIdox4AogZOJbcXz9HcjE13nvzBm+I5Y9jg2H70U0S+yTrS1nH0Co0B7YLEh2OmcGXZ3cDnYILmw/4JplYnQKp07O+SDQM9g2McxNVxsg+PfsLQkgUDdoMehEmTNjGE3bqPgXpbDnnObAhzFHJRVxMT0rBM+GOVzoPEWmD0EUUDRCmCqFoBlL9+MgHoM1HSaUQgaqUpoFJGS3Iy0WvRydQ5jD8khmDgINxbKmoaQS6LNnlGzSW/tNpMdP4MqLNiFpjuDwrkdgEtm8h0K8EN2Dm3Dtuz6OaLIbUyPH8dJj38XQgRfn1RJJdOOWj/wh4t3+5WLw0M1lvTTOAMK/IZJ9teXtNgYIxF5Ifgg8BE6AYelloWtLXsOsvt50B60tFdMiEyRFPlASKDKpUu4DxzFQgmkS5bwAw5wz9dltkpMkaSgppFZkAEDXtVkNAjM1GBRUMf/FwdIrm0SsRKzZtZ+dNkCov73aAMG/x881QLjrk//TIhVvtRKJRFCw4hjNzL2I/evi2VHTUvwV6LQQl4qI8jOLHOpaPXrSllBaZyoyp87a6Ztv145wyPsQ4UDzsqEHEIws8rnc7NxUvgAcLZYoiRDF+aRRzuuXTB9EHU3e7fGQhLCo4cjhV/Hmay9qGiBEEl244xN/jnjXALLTYzh99BWcPrQb+194GLo6F4PuB0CgILNLOmVMFQ0cKRo182OUswWDru+QeBRMC9lyBsBq60nJhRLlDIjroyL2TWsoURpkSpVsJyVkfP5JylZItL/lQANykO8LCJjWTAyGBBzM6SD9S7dyGttP/CfM0V0t38f1AQKdyinMV4TIE5mXPiuwSegLvAjVUJjAFil/BSXiYomPTAYmRJaPg8IlDXavxAfKuWc06KadK0HiZeaHZRg6dEtlkyULQRgMRNAa0YwQp4kM0zCgG5rtnEgHCjI3lFNSk0mBgAIDDOWU0bzIg6cF4ABZDEASAgyMKHqR9XFsdArDy6RBGH3SQO5wlSgGSgddJXyhUsO4cM81G7bY/Lto7k6voKGyTbdCstl+1uqb17BQBmpZhs/FEUEOh021Pla73rnO7dhZLgZSxxObHzn3kTARSaDAhCQJyJlxZBT/Exw1mvSIbCIRNNhpkRzYmAdzixzlGvVldlLrJl2eXwsdIpj/gZBFkGvsf6CYQRTMCEReZYmYHEpmt32bt/HBoWSGMKPP8RmQPwY59VFmyACtb5m90W39eTOCnBFvaKZxU99gB5AKakjPTLEkNm6KHWUhsJTkBBookQ1pGZwSlGWMTUxgemIEt1x/SXMAgePQu2oz3vM7f43MxGn86J/+BKMnDzAhsdDOvBSAcP2qEN6wIYyuiICBhIR7XkgjUzJwyeoQvvjk1OyY6PW9OSXhHZui2DOu4NiMhl+5JIGwxGM8p+N7+3LYNaUyYe8UMnVf2xvA7ecn8OD+DLb1BDFV0PGmrVHGITA8o+HePVkMzej40IVxPHgoj5enVER5Dh+9II63nx/Ht56aRmdUxJ6xEu66IgXeKEI5vRuPPvAfzJxS78XjZi3rXdNYg4VrrFYAABXmSURBVGCf5JlwtQwmnOnfpDkgoasaqg0QBJlpAElroJmKrT2gDIkELOi+8jX0b8M0oOkl8LwAmXIdEJEQoyInsjIbiJDWgIpuaaxtW19BNOgqAwkOQOBZpIVtWqAkTba5wfY64SoAAvUnIIagGyr0sqZiWQHCUwZyh9oAYan7td79rwmAcNsnvsGUa9XU6ZQfwFa3L12l7GUhBN5iRDhd0Tn7MambWe6AcjpjZpfWbdav2fdjc1FGs11jKWJlE0HBYnWreoXmpIm6JcFETMhAtho7cUzq3VCsOSBGLxQncyMBNpa9kdOYc55TanHAUzxH1oizjJB1X8Y8OXAakHkFMjQGGggY2i80e1aJzjkckgExhJwaQIGcCLWyE6Ez8R7mJhoEVqVMlHJTUJSlscIx9MycagXo9JJXVEaU1CxAoAe6e3Aj3v2pr8LQVOx6/HvY+9SDzA+hVEjP81RfCkBg88oBt24M4+q1Yfzxk9O4skvG5WvC+PNnp3BuUsaJvI7btsZw7TlhPHWyiK8+NY2LugN465YIc+hMl0w8fLiAi/sDGIxLTADlNRP37c/h01d3IBkSWBjg7mEFx6c1vP/SJBNYp6Y13LM7yyJH3nNBHA/uy+KhEyXkdBMf2BJDVOawOilh13AJ4wUTv3NdB3gtByNzEvtf+Bnuv//+loaPNgIIJmwhTkKdBCtpBoSyZoD+LulEHOZoDGSousJMAWRKIK0CndQdgSwJlH2RAABpAlSmOQgIwTKo0GEYallj4BCWCQw82HXJzLShaKUFAME2x9J3hknpqB2DJUAaBK4Oj8FymhhG2wChpVFO7B1aw+HkrNIgEECoFCIMLNAHPtjfvYCCymuJVjURKCIVVBmq5wRKNjTn4eOkNWbdtOgh5ZmqmfIIOMmNZmVXmavdjQ8FnfgHEhoiZb7zWVBCNu+KLIhEbuRGm0FagAifRYC3w0DsU8fi1M+GJWBc73M1XXbKZ9IE2IBBJMFeDvNzhLpiBpA2OmZbcruUNijRIYHUrwqLDEiEecQjEjSH0ra86clhkOa6SHOvcciUbJ+BeoUYJYkimdczKBbyvj+gDpNiMwCBHtpkz2q86X2/C6WUx6pNF7C3vKYUsffpB/D0g3dD1/wxMZBwvqhDxgcuTuBbO9N4eVLFm1eFcMPGMPKqiVcnNTx8pID1lJo3IaIjIeFvX0qz/fPe7ZRx0sSPjhWQ1hzl9tysJyUOf3BtF548ksf2/iDu359jG++tW6IYSIh47ngRT58s4m3bY8iXTAYG6Fn/x50zePeOONIlA8+fLOHltIbzOyR87IoUgmYe3Mwh7H76ETz66KNVVdCuNq+LixoChLKj8eKRz6+c1nMR6UuNz+z3iC34KyNMmJNhjU3NXv6M7rziGkqgZnDgyloDg6nrTbaPOErsJAIcLX6N0gYILjbIgkvaJgY7PL5a8cXEsBAgVDZUeTL3vnTN30GnZBKsEX6OMMg5KTKHubITG3n9VDrUOcCBnk+tHCpXIkFW9oYnljX6znY2tv+uLMTO1hvKgtj6qD0H6S102iNhOJoRXXMDUDgei9nndMgcCXT7pE6fU6SFagUwo3c0PWE8SyddNg9Bh2ZJKJjRputzbgxKQE9Ug2TloGo6KLqBTuuzVM8OhwOA41MB5OuQUNGJuS8BJOQS8tm0a9OCl0E0CxBI3dvRtxZv/ZUvINk9iImTh3B49xPgRBETJw/jxMEXoRTnk1ctRYPQK/O4Zk0Ie8ZVHMxozERwbkLCmzdH8MSxAp4et6M6AjyHHUkJ0RCPn52yQeYV/QGQH97uSRWlhRsYwGCAxw3rwxB5DrtGFeyZUnFxTwBrEiJyionXrQnjxZNF9vepnIGL+gNQdIuBhtcNBHFkSsWVa8KYKBrYM6pge7cMMzeBLeqLGH/1SRw4cMDLkni+thFAOKMUylVGU40DgaNoG0aVSv4OJjvgMGDA10fQyxnm2NYglENRPe9Q9ze8JjUItYbvp2d/oymmuPYwn0OMr2+7J8IZqcxGSLZpltqYCXY6B9heypXqHDJREFggL3zFIHIensXa25zuFIWkI8WPzXWvDEaYUHSyIXIcMqqE8ZzsSotQe6wU/0+gQYNhSUyor6RCc9gRsdAVzCObzS6yO9uRDTZgAC/gdC7G5rNWCQeAvpgOQ0lDKbWGWKMZgEBq5Z5V5+BN7/8suvrXo5TPYM8zD+Kp+/9+nsZg4biWAhBW0jq76cvKimJYeRwSVYmSmBNCWSHh0kI7Pj69bERJbYBwZgDCwsOmm+ePrjljTor1NAj1Or8U7/5Gk0Kq8hCfZ/Z7L7nWqV7H29axTztenjyheBbqVAEaWIpj4m63SXoMXQOnTNftHtWXZvkKQis642GjOW70vSRQQiQVAYvCEOv7CpSsIGb0zrpVxoI2YZSl5X3NH1HZaDMAgUIaL7/5Q1i37XXQdRWvPHk/nv7hP7C/65VfJIDAeBCO3Itops2DUG1PMCuEhxwMC+tw3knLSbVMUQzVqJZrRSQs1KYuHINbr3jnvnrq76WYDRq91xp9fybbrte3WvM1q82tcrPXNam29lyzAGHei9n5h1tjd6NVAoVjaQjxRUahPMuYN8uS6C0BDDU3CxSYVoDsNnTyteOg7XhoAgsGMplcXVBCHgTTeiczC7yWC1EgU4imqKdnCaeqjZf8J6aMLhhWfd5xWTAR5ArgoRBlFaORsRkvmyMyqv6itrM5evFBuPrtd6Gjbx1SvWtw8KXH8MyDd8NoAA6obX8AggWubONmWQXqUjDPXbuc+476F88cwfqj9yKcazMp1j00lYk7XOVkYLwKtobBEUqUzXG5cjEMUy6Gg+53UiOA4L4m++Q+z3ej4mavGQjp1rp+Il46VpYTHm/xfHmtsXuuqNxfv0BNNS2FLwBhEZpkq9bMcBffQzZ6EiJOrgUSLnbInp1vgb4jp0abatkjcOA42yxB3vAcR/78yJTAPPvJzGELMpu62dFkkECcNjqhrzCTgD+zPVcLzTv5S4gk0J254Ax7LcrCnRY5S9oUD/4OtI7OmtE8k5mFfCgYZTJb2+ZBQzMahE3nX4MN512N6bHjePGRe2GUQ9YazedSAQJnGYinDyFUnGC6aF0MYya5Dbq0OPJEMFREcycQLI6AW0DrO6+ffmvfyyfjSP4Euieeg6C3PonY2eaDUAuoNto/zAi6YL3aAME+yHktbYDgz4O/bABhoXbB6b6fZgnbc58S/VDCnjJYmAUOtmB3QIQ7MwWHEqKY0WLzBCI5E9oCzdZkECTJm9GGJ2avm3ylX0+AiXJa0Dwwuho2/ybyRmzJYbCz4I+1YUdpVIIFu83G4M8VQCh7nzsIlhwUI/FO5DMTnqIqlgoQJL2ATQf+CfH0Pib0DTGM0d5rcXrgOujSXLptwVDQMbUX/cOPIJQfmtU4LN9+Ic2FDr6CVbCVba9kgOAksWvJ+C1gnNI9UzbHslaJNJ0Dq/rR3deN+JoQ1r2xC7zsUoCyUEsToqRDlEwI4pwQoWyObQ1C9VVsBqB43Q+/8BqEWhPmKBVoq/oJFubaswWXc+qn37agsTUQDDQwbYQNIOYDGR45K4G8Xp07wM7tYGsSTIsSGi0dtTFZ5ZOmxesm9ed66vzS5iEg2oQy5EBaWRzzQ2WWTmctGYgor+O8NbSqmRgMxDv7IMkU386hf912DB/bh8nho4vIjyj/wpotl+DUod3Q1CLo36FIAnIgjEAoilTvakyOHINWKiIQjuOa2z6BWKeXXAy3IxNfz7ocVLPYvO/riGVIz2tvAkOMYbTnShTD/bMaK0nNomNqFyK5o/6p5fxZ/JbUshIBgp18iYiWKHSyhmAphzI63xK1slcb8OQ4AYST7D5qhrSb/YMEEHoQ6o+j64p14Mk5qEYRwKE7lkJIsvlUiDQqXRoHpBzC0TyCITu9ZBsg1N66bYAwXy62xMTg5s2xULS0BjDYPXEyPDqnUsengU6qJIjoZEziKWsmoJrLwxpJZFBEBEVRFBQqrZqUJREsIVGrUiu7WZflvIbCSbsixKRogkJQiTKZjd8ihjqKNqkEDeSz4JibHPMPaTRM20xBa2iZmErn8a4bt80yKRIw2HrZmxgwIB6DaKILLzzybzh58KXF7IixTlx7+2/ip//2FZQKGQYKetdsZfdQpAP5Kbz02H8wwPF/27u22DiuMvzt7MzsrnfX3bW9tmOnvtS1o7SN24pim1BI26ilKTwAfYByETzwmgdAPPDSV15A4rGKEOIiJEACQSV4oEoBIUoKBOSGhrSx0yS1sRsnWTt739mZQd8/M+u1M7vr3dipXfnkydm5nDNz5vzf+S/fF1CCODz9LCKdqRbEmtYBQsTIYJwAYW0dIPDZW4qOihpdJ6oiBXCFRFt7GklueVrtNoDgqDVSr8F/587QpKZpQthUK9hI0FsxydBYqVIx13sINEp6UMXKtWu4cvmKE58nQAgqGBwcRDLVg3B/El0zh4Rsya+N9QxgZuwIBpK9CKkOzbRhmli5dROzV8/hrZWz6EzeRDi6DxAaTcZ9gLAJIHzmpEOUtB3CRFteBXwO9ADDTgKFzbddlwymZ4Bc9RRg2aIL704GC6AzYqM/XpY4pIAEm3SxjqIhjaRBuWXXaJKQiMRMe8bbUHUR1X9IQQU42A2EAnlxo5DbgsCI42fZKeng+QxyJUVImPyap9jJEJBwStgWspkbeOH4qACES2/8SQz78OEpkWUOqjounz8j5EdkTNQjUVmIyXEw+5ffYnjiMTz61PN4961/YWFuFu9dvYBILImOeBIPTj8r+QlnT/8CD3/800KhO3rkcYTj3dsKEO5wWu3505sBBEJDr3Gn7ZQzbxy2387dTQlcP9fTT9hEnrSZYMky64MDXiyih6Crmi9rHg19qWKgZNSviOH9eA0tqGJ5eRnz8/PVkmKWbg8NDaEr1QOlJ1YXIBxMpPC56WdwZGhc+lLbyDB6aXkBv/v3abydfg3J1C2Uc/VDDO2w/LWaJOdly/u9p0YGulWPTDsfQ6tjaecejbQr6l3vbrwXv9BH4LMnT9m1OQIOt/nu2bDcTcDQzstu95y+WEkIiNSgU3ZZlVdW3HQ9151puhLIHquj0E27u+uyLF7t9mBnzuMuKtFhI6ob4gFw+qsI/wQBgEdD29sJJCMGcplVKXv0ngH5JjyOBeYHpPMqrmUI3Jo3fnjl7P/wheMjDkCY/SP0SAeSqXsxNvkx5DJpnPvry1A1HfFECorqVF6wvDWbvo7nvvoiCnlWbZBBsYjTP/8etHAHJh45htTB+3HhH6+IeNPRT30NHZ09OHDfQ1BDsbYAgm5kcei/L6FzjQqJWxld8/F/EI5oBBDKJjlONEcXgSyFooQEN8nYBQ62jZJZFA0FoVYmjTJzKAKO+qNk0POfKDY69Mtc86jlQI0GXQmLLLN4AColmCbBqX8YTVdVhPWQy8AIlMuGMCeqahCa5s4ty0SuSDEm/3cc0jSENUc0amlpCXNzc1WAQM/EyMgIevv6YCbDSE5P3O5BsIHPTz2Np4/MIBIKy/h+/fJpZLMFnHjmKHpT3eLJ+Of8m/jp336CcOIqAmZjgNAOM18rhrWRoW8EELZTA6RRH1oZi5jKRmybfpvhNhbtWt2Z2ks2AhvbMY7A8ydP1V2d+OHIzn6XrF8fFLDA3XNfZE04Aby2oYxIUaqMhYxDcnKw0kLy/F1SJ2+nvZJVZZe9G5qoV0aAgYQJWIbDWlnbX3JOmFS5U+S4fGYVZSokuh9MLUqWnVxARbYSxS0jsqXhbQYIlHumYRgcfwRdvffinfOvY3Vl0dcgE0Qcnv4EVq8tIp9JI3VwHOfP/B7xrl70Dx3C8pULuL50CRWjjIlHn0T/yAMYfeijCIaibQEExaogdWMW8ewCFAoHldJI3HgdrG7Y3OyAhkJsGPn4GBV/tvQstuMg53szEc4vIrZ23rdv23Gf2ms0AgiGqUJRQgiK1DJj/I7CHQnTqMRIM06tBcMsQqXokhDMUA6a3w4VHnXXUNP9T+9dQNQbOU4KMxEgRNQoDIu6DCoMgwBh/dvyFlzPIGz2HhQKRQEI/A6iUSeXif0rlIowCEjcgdYup5GQ64GgkNbSEi5evOgChAB03QEIff39AhASU+MIhXQEAwoqrkqlYgFfP/FFPDwyIXO9VCrjO9/9oczxY49/CE8em5K7Xly6ih+8+iPkg28ipBt1kxQ9Hpnb5qDL8+DrnWlYntvaDLmbAGG7xtIqQGjtiThHNwII9YBTqwDBr18NAcIGpLLLwIIXKdkt4KWVl64HbSSC16FQTrZO28y45RE/CWBwWSO5A76S1pHfJQCBm6bRbhOlXFqolD16bE5uuks9kMMx5PM5FAuFuuibQZ+CFUXOim9ZQdIPINiWCU2PyL0pukRvhV8LqhpUPQzLrIiML70MkqioqOBvDEtw18nG63V2HcBTL3yr7SRF+egtAwQKbAGzhAPLf8fgu7/aYIiZk5BOTmLx4AkUO1KtTLPtOdYG4pl3MHT5N4jmmCi5s60xQKB3Kex4ArjrJ5iybHlH/JsGktTGFbMIXY24Us+m7HAYYqDCo7OY2q5gkwMQGPEnqBCRJ1F7tEQQikJMjgeBlCkuUKcIk2nCtKzbwgu5HOcLw2MWYjEXINgW8iUKOpniGSPzKNcsuv55jQ49DF1zwgIeQPAMjudBIECwusK458PjGO7tx4MD96FglPGfxXmsZm7hmye+hEkXIBgVE99+8fsYHxvC5JFD+MjUpFx7TgDCj5ETgFDeBwh1iK3aMar7AMFnTXDSaHaPd6GeIuXOLmftXV1VKugM3hQFxVZb7QRmeuWKkdqyAW31Xq0efyBho1PNY21ttXpqbX+r2uWBgACIesaaJ5fsENYqXVJkutXmBxBo8Hei3WmZo1+fVLOMvvfOIrl6TnahNGv5cArLfTMoRHrF8/J+NFItj87/ErEMwyE725qHGHThLHHc/qwocoCBtysnXyoVHRmGcP6fXjeqoPJvhiicZ0hFR8UOCGEaPQfVsIMrJc3fCSYcD4Kz9/fyHaoGnFUuDDG4tfuGUUGlYkp4gWEGNoKAXDFfDTHI9yB6ME6PQ6oOSpVvDjHwb4Jqx4PQh0rCCTFouir5CuwDkxAJZr5y9JN44oHHEHKrF1559QxuZTI4/sQMEvfE5dg3rryNl/58CrHkAuzKvgehnmt+HyBs/L637EFotizsJsCwF7wLDjeDDU0xRI+BlRSOkBMz8pvX/PN95K0OZMzEtpRcNnu/zX7nEnp/r4lMernZoU1/py7FqpWEabWmT7HXAYIYISFCqnVCM9TiGcSmj25HDtg9Wgz0EOzIEOte1GJIzK5fWtgoSZHzsVguSaJioxYNh6EFNfEg3JakODyERHc31N44uqb9qxhiagjfeO7LmBgYcRlh3SoIF7gs3LyGU3/4GZbL59DTn0U523oOQqPEwnaMar3nsR9i8H8y71eI4f/4ijc3uR8BFwAAAABJRU5ErkJggg==;" vertex="1" parent="1">
                    <mxGeometry x="10" y="10" width="520" height="194" as="geometry"/>
                </mxCell>
                <mxCell id="3" value="" style="whiteSpace=wrap;html=1;fillColor=none;strokeColor=#FF0000;strokeWidth=3;" vertex="1" parent="1">
                    <mxGeometry x="190" y="70" width="30" height="40" as="geometry"/>
                </mxCell>
                <mxCell id="5" value="" style="whiteSpace=wrap;html=1;fillColor=none;strokeColor=#FF0000;strokeWidth=3;" vertex="1" parent="1">
                    <mxGeometry x="230" y="50" width="100" height="30" as="geometry"/>
                </mxCell>
            </root>
        </mxGraphModel>
    </diagram>
</mxfile>